/* XPM */
static char * arr1_up[] = {
"50 50 34 1",
" 	c None",
".	c #005689",
"+	c #005789",
"@	c #00578A",
"#	c #005587",
"$	c #004C82",
"%	c #004D83",
"&	c #004E84",
"*	c #004F84",
"=	c #005085",
"-	c #005488",
";	c #005387",
">	c #005185",
",	c #00588A",
"'	c #005487",
")	c #004C83",
"!	c #005588",
"~	c #005286",
"{	c #005589",
"]	c #005287",
"^	c #00568A",
"/	c #005186",
"(	c #005386",
"_	c #005486",
":	c #004B81",
"<	c #005389",
"[	c #005489",
"}	c #004D82",
"|	c #005688",
"1	c #004E83",
"2	c #004B82",
"3	c #00558A",
"4	c #005788",
"5	c #005388",
"                                                  ",
"                                                  ",
"                     ..+..+@.                     ",
"                 @.#$%&*==*&%$-@.                 ",
"               +;$>-..........->$;+               ",
"             ,=&-................-&=,             ",
"            ')!....................!)'            ",
"          +%~..........{*~...........~%.          ",
"         .$!..........{]^;/...........!${         ",
"        !$............$(  _;............:-        ",
"       <$............][   .}.............%{       ",
"       %!............$|    !~............!%       ",
"      -]............~!     .%.............~~      ",
"     {$.............%       '>.............$-     ",
"     =!............>-        %.............!=     ",
"    /1.............%         ;=.............1~    ",
"    ;-............=]          1.............-;    ",
"   -$............{&           (*.............$.   ",
"   .>............*;            =!............>{   ",
"   !-...........!/             '1............-|   ",
"   2............&^              ;!............2   ",
"  |%...........!'               .%............}|  ",
"  !&...........1+                !-...........&.  ",
"  3*..........-'                 {%...........*^  ",
"  .=..........%!                  '-..........=.  ",
"  .=.........''                   ;}..........=.  ",
"  3*.........%;                    ;;.........*^  ",
"  !&........;;                     _%.........&.  ",
"  |%........}]                      '~........}|  ",
"   2.......~'                        %........2   ",
"   !-......%                         '/......-|   ",
"   |>.....~4                          *......>{   ",
"   -$.....%                           {~.....$.   ",
"    ;-....>!                          .-....-;    ",
"    /1.....~5......................../-.....1~    ",
"     =!.....!!!!!!!!!!!!!!!!!!!!!!!!!{.....!=     ",
"     {$....................................$-     ",
"      -]..................................~~      ",
"       %!................................!%       ",
"       <$................................%{       ",
"        #$..............................:-        ",
"         .$!..........................!$.         ",
"          +%~........................~1.          ",
"            ')!....................!%#            ",
"             ,=&-................-&=@             ",
"               +;$>-..........->$;+               ",
"                 @^-$%&*==*&%$-..                 ",
"                     ..+..+.4                     ",
"                                                  ",
"                                                  "};
