/* XPM */
static char * arr_up[] = {
"16 16 122 2",
"  	c #FFF7E9",
". 	c #F9FEF7",
"+ 	c #E7FFFF",
"@ 	c #E6FFFF",
"# 	c #F2FFFF",
"$ 	c #FFEEEC",
"% 	c #FFE4DD",
"& 	c #9E180D",
"* 	c #FEFFF1",
"= 	c #FFFCF9",
"- 	c #FEFEFF",
"; 	c #E8FAFF",
"> 	c #E4FEFD",
", 	c #FFFBF3",
"' 	c #FFE2DA",
") 	c #A70000",
"! 	c #E8FDEA",
"~ 	c #FFF7F7",
"{ 	c #FFF5FF",
"] 	c #EBFFFF",
"^ 	c #FAF1E0",
"/ 	c #911A14",
"( 	c #D10004",
"_ 	c #F5FFF8",
": 	c #F4E8EA",
"< 	c #FFF0FF",
"[ 	c #FCF4FF",
"} 	c #FBFFFB",
"| 	c #FFEFE2",
"1 	c #A91815",
"2 	c #EB0008",
"3 	c #FFFEFF",
"4 	c #FCFFFF",
"5 	c #FAF6F7",
"6 	c #FFF3F4",
"7 	c #8A2020",
"8 	c #BE0A0D",
"9 	c #CC0000",
"0 	c #FFE9F9",
"a 	c #F9FFFF",
"b 	c #C7F3E4",
"c 	c #FFFFFA",
"d 	c #FFDEEC",
"e 	c #C00317",
"f 	c #D00004",
"g 	c #D71307",
"h 	c #FFEBFF",
"i 	c #EEFFF9",
"j 	c #D8FFFA",
"k 	c #FFFCF1",
"l 	c #A8061D",
"m 	c #E00006",
"n 	c #E10003",
"o 	c #AC0600",
"p 	c #FFF3FF",
"q 	c #F3FFFC",
"r 	c #E7FFF0",
"s 	c #FFEFE8",
"t 	c #C7061B",
"u 	c #EA0003",
"v 	c #E60003",
"w 	c #B00F00",
"x 	c #F7FFFF",
"y 	c #FBFFF9",
"z 	c #FFF5ED",
"A 	c #80090B",
"B 	c #D70A19",
"C 	c #E50001",
"D 	c #C90000",
"E 	c #C91400",
"F 	c #DDFFF9",
"G 	c #FFF6EF",
"H 	c #FFDDE4",
"I 	c #BA0814",
"J 	c #C80000",
"K 	c #D40704",
"L 	c #D60B04",
"M 	c #BD0000",
"N 	c #E0FFF6",
"O 	c #FFEBE5",
"P 	c #AC0A19",
"Q 	c #C70000",
"R 	c #D00000",
"S 	c #BF0300",
"T 	c #CA0800",
"U 	c #DB0503",
"V 	c #FFE0DD",
"W 	c #B20008",
"X 	c #ED0711",
"Y 	c #DA0100",
"Z 	c #C20000",
"` 	c #C30000",
" .	c #FFEBE8",
"..	c #8E1A1B",
"+.	c #D21A1C",
"@.	c #CA0000",
"#.	c #D60000",
"$.	c #D50200",
"%.	c #DB110F",
"&.	c #C90006",
"*.	c #FFD6E4",
"=.	c #950001",
"-.	c #C80F0A",
";.	c #CF0000",
">.	c #EC0A00",
",.	c #D90000",
"'.	c #D20514",
").	c #B6041C",
"!.	c #C7111D",
"~.	c #C20100",
"{.	c #D60800",
"].	c #D20000",
"^.	c #DC0000",
"/.	c #D1000F",
"(.	c #CB0320",
"_.	c #BD0002",
":.	c #CD0400",
"<.	c #D50900",
"[.	c #CD0000",
"}.	c #DC0200",
"|.	c #DB0008",
"1.	c #DC0014",
"  . + @ # $ % & & % $ # @ + .   ",
"* = - ; > , ' ) ) ' , > ; - = * ",
"! ~ { - ] ^ / ( ( / ^ ] - { ~ ! ",
"_ : < [ } | 1 2 2 1 | } [ < : _ ",
"~ 3 4 5 6 7 8 9 9 8 7 6 5 4 3 ~ ",
"0 a b c d e f g g f e d c b a 0 ",
"h i j k l m n o o n m l k j i h ",
"p q r s t u v w w v u t s r q p ",
"x y z A B C D E E D C B A z y x ",
"F G H I J K L M M L K J I H G F ",
"N O P Q R S T U U T S R Q P O N ",
"* V W X Y Z ` Z Z ` Z Y X W V * ",
" ...+.@.#.$.%.&.&.%.$.#.@.+... .",
"*.=.-.;.>.,.9 '.'.9 ,.>.;.-.=.*.",
").!.~.{.].^.]././.].^.].{.~.!.).",
"(._.:.<.[.}.|.1.1.|.}.[.<.:._.(."};
