/* XPM */
static char * arr_right[] = {
"16 16 30 1",
" 	c #010101",
".	c #090909",
"+	c #F7F7F7",
"@	c #F8F8F8",
"#	c #FFFFFF",
"$	c #FDFDFD",
"%	c #FAFAFA",
"&	c #F6F6F6",
"*	c #000000",
"=	c #040404",
"-	c #020202",
";	c #050505",
">	c #E7E7E7",
",	c #E8E8E8",
"'	c #F5F5F5",
")	c #0B0B0B",
"!	c #060606",
"~	c #0D0D0D",
"{	c #FEFEFE",
"]	c #F0F0F0",
"^	c #0C0C0C",
"/	c #EBEBEB",
"(	c #F2F2F2",
"_	c #151515",
":	c #080808",
"<	c #0A0A0A",
"[	c #070707",
"}	c #EAEAEA",
"|	c #030303",
"1	c #161616",
" .+@###@#$%###%&",
"*=-;@>###,#$'@##",
")*!**~##%{#%#]##",
"*^******#%#/{#(%",
"***=*_*:*<{#####",
";*^ -*[*;**:]}#&",
"[*|*=*1*; **[|#$",
"|*)=*)*!*! ****;",
"|*)=*)*!*! ****;",
"[*|*=*1*; **[|#$",
";*^ -*[*;**:]}#&",
"***=*_*:*<{#####",
"*^******#%#/{#(%",
")*!**~##%{#%#]##",
"*=-;@>###,#$'@##",
" .+@###@#$%###%&"};
