/* XPM */
static const char * disconnect[] = {
"16 16 77 1",
" 	c None",
".	c #9CABD9",
"+	c #7A8FCE",
"@	c #E57E7E",
"#	c #9BAAD8",
"$	c #8597D0",
"%	c #6E85CC",
"&	c #E38181",
"*	c #E06D6D",
"=	c #8194CE",
"-	c #8D9ED2",
";	c #8D9DD2",
">	c #8093CD",
",	c #7085CB",
"'	c #3E4C72",
")	c #DF6C6C",
"!	c #657CC3",
"~	c #7085C7",
"{	c #798CCB",
"]	c #7589CA",
"^	c #6C82C8",
"/	c #3F4C74",
"(	c #5F77C1",
"_	c #6178C1",
":	c #697FC5",
"<	c #677DC4",
"[	c #667DC6",
"}	c #E47979",
"|	c #E27878",
"1	c #53659D",
"2	c #637AC4",
"3	c #677EC8",
"4	c #BAC4E4",
"5	c #929AB5",
"6	c #55679E",
"7	c #657DC5",
"8	c #667CC3",
"9	c #687FC7",
"0	c #3E4B72",
"a	c #ACB8DE",
"b	c #A0AFDB",
"c	c #6D7CA7",
"d	c #6980C9",
"e	c #3F4C72",
"f	c #94A4D5",
"g	c #92A2D4",
"h	c #8C9DD2",
"i	c #7E91CD",
"j	c #6B81C7",
"k	c #51639C",
"l	c #7A8ECC",
"m	c #7489C9",
"n	c #6C83C7",
"o	c #5C74C0",
"p	c #5B75C3",
"q	c #6B81C5",
"r	c #677EC4",
"s	c #637AC2",
"t	c #5E76C0",
"u	c #5D75C3",
"v	c #394670",
"w	c #E27B7B",
"x	c #6C82C6",
"y	c #6A80C5",
"z	c #687FC6",
"A	c #657DC6",
"B	c #627BC6",
"C	c #3A4770",
"D	c #E67E7E",
"E	c #A65151",
"F	c #6F85C7",
"G	c #6D83C7",
"H	c #6F86CA",
"I	c #414F79",
"J	c #7288CA",
"K	c #7389CD",
"L	c #424F79",
"                ",
"             .+ ",
"      @     #$% ",
"   &  *  =-;>,' ",
"    )   !~{]^/  ",
"       (_!:<[   ",
"  }|   12!!!3   ",
"     45 67890   ",
"    aabc 6de    ",
"   fghijk   }|  ",
"   lmn!op       ",
"   qrstuv  w    ",
"  xyzABC D  E   ",
" FGHI    *      ",
" JKL            ",
"                "};
