/* XPM */
static const char *oscilloscope1[] = {
/* columns rows colors chars-per-pixel */
"32 32 16 1 ",
"  c black",
". c #C0C0C0",
"X c #808080",
"o c #00F800",
"O c None",
"+ c #080000",
"@ c #001583",
"# c #00000E",
"$ c #004301",
"% c #5C003A",
"& c #005300",
"* c #46004F",
"= c #005400",
"- c #450050",
"; c #004400",
": c #410049",
/* pixels */
"OO                            OO",
"O OOOOOOOOOOOOOOOOOOOOOOOOOOOO O",
" O............................O ",
" O.                          .O ",
" O.     X    o   X     X  X  .O ",
" O.     X    o   X     X  X  .O ",
" O. XXXXXXXXXoXXXXXXXXXXXXXX .O ",
" O.     X    o   X     X  X  .O ",
" O.     X    o   X     X  X  .O ",
" O.     X    o   X     X  X  .O ",
" O.     X    o   X     X  X  .O ",
" O.     X    o   X     X  X  .O ",
" O. XXXXXXXXXoXXXXXXXXXXXXXX .O ",
" O.     X    o   X     X  X  .O ",
" O.     X    o   X     X  X  .O ",
" O.     X    o   X     X  X  .O ",
" O.     X    o   X   o X  X  .O ",
" O.     X    o   X   o X  X  .O ",
" O. XXXXXXXXXoXXXXXXXoXXXXXX .O ",
" O.     X    o   X   o X  X  .O ",
" O.     X    o   X   o X  o  .O ",
" O.     X    oo  X   o X  o  .O ",
" O.  o  X   ooo  X   o X  o  .O ",
" O.  oo X   oooo X o ooX  o  .O ",
" O. XooXXXXoo oooXXoXooXXXoX .O ",
" O. ooooooooo oooooo ooo oo  .O ",
" O. ooooooo    ooooooooooooo .O ",
" O. oo  X        Xo oo ooooo .O ",
" O.                          .O ",
" O............................O ",
"O OOOOOOOOOOOOOOOOOOOOOOOOOOOO O",
"OO                            OO"
};
