/* XPM */
static const char *oscilloscope[] = {
/* columns rows colors chars-per-pixel */
"32 32 256 2 ",
"   c #007916",
".  c #0A751D",
"X  c #017B19",
"o  c #0A7B1D",
"O  c #3A4F3F",
"+  c #255F30",
"@  c #3A523F",
"#  c #365A3A",
"$  c #395D3E",
"%  c #186E27",
"&  c #1A6629",
"*  c #176D28",
"=  c #1A6C29",
"-  c #0C7420",
";  c #0D7C21",
":  c #127323",
">  c #137D25",
",  c #187927",
"<  c #157428",
"1  c #1C742B",
"2  c #167A2A",
"3  c #1B7C2C",
"4  c #216C2E",
"5  c #21732E",
"6  c #207B2F",
"7  c #266430",
"8  c #2B6434",
"9  c #256C31",
"0  c #2A6D35",
"q  c #2F6A38",
"w  c #34643B",
"e  c #39623E",
"r  c #316B3B",
"t  c #267432",
"y  c #297234",
"u  c #237B32",
"i  c #297B36",
"p  c #2D7339",
"a  c #2D7D3A",
"s  c #32733D",
"d  c #327A3D",
"f  c #3C5441",
"g  c #3D5D42",
"h  c #3E6543",
"j  c #376C41",
"k  c #3C6A42",
"l  c #377442",
"z  c #3A7344",
"x  c #357E41",
"c  c #3A7B45",
"v  c #3E7C49",
"b  c #425645",
"n  c #435A45",
"m  c #465C49",
"M  c #495E4B",
"N  c #416545",
"B  c #416D46",
"V  c #456449",
"C  c #4A614D",
"Z  c #446C4A",
"A  c #4A6B4E",
"S  c #44744B",
"D  c #49724E",
"F  c #437B4C",
"G  c #4D6550",
"H  c #4E6D52",
"J  c #526654",
"K  c #526B55",
"L  c #556A59",
"P  c #5A6D5C",
"I  c #4E7653",
"U  c #477F50",
"Y  c #4C7953",
"T  c #537356",
"R  c #557358",
"E  c #5B735D",
"W  c #557C5A",
"Q  c #58785B",
"!  c #5E7160",
"~  c #616D63",
"^  c #627564",
"/  c #627965",
"(  c #697D6B",
")  c #01831A",
"_  c #04891E",
"`  c #00951D",
"'  c #00A11F",
"]  c #0C8322",
"[  c #078820",
"{  c #118125",
"}  c #158329",
"|  c #1A842C",
" . c #148C2B",
".. c #1C8A2F",
"X. c #069721",
"o. c #0E9827",
"O. c #0F9C29",
"+. c #14902B",
"@. c #1D8630",
"#. c #1F8932",
"$. c #1A9330",
"%. c #1B9B33",
"&. c #228433",
"*. c #248A36",
"=. c #278538",
"-. c #2E823C",
";. c #268A38",
":. c #2A8C3B",
">. c #229738",
",. c #289139",
"<. c #05A423",
"1. c #09A225",
"2. c #0AA728",
"3. c #12A42D",
"4. c #06B928",
"5. c #17A331",
"6. c #19A434",
"7. c #16AB32",
"8. c #0EBC31",
"9. c #15BA35",
"0. c #21A739",
"q. c #20BA3D",
"w. c #0EC632",
"e. c #0EC932",
"r. c #13C235",
"t. c #15C937",
"y. c #17C638",
"u. c #1AC43C",
"i. c #15CB39",
"p. c #0EDC36",
"a. c #12DC3A",
"s. c #0CE035",
"d. c #12E43C",
"f. c #0EFB3D",
"g. c #348241",
"h. c #3C8146",
"j. c #358C44",
"k. c #3B8C4A",
"l. c #2E9E41",
"z. c #339244",
"x. c #31A646",
"c. c #25B140",
"v. c #42824C",
"b. c #478151",
"n. c #4D8355",
"m. c #4C8855",
"M. c #4F8459",
"N. c #548A5D",
"B. c #558B60",
"V. c #5A8D62",
"C. c #608B67",
"Z. c #67906D",
"A. c #6D9675",
"S. c #749C79",
"D. c #22C842",
"F. c #1DED47",
"G. c #14F641",
"H. c #14FA42",
"J. c #1FF54A",
"K. c #28E04D",
"L. c #24ED4C",
"P. c #21F44C",
"I. c #23F84E",
"U. c #29ED51",
"Y. c #28F051",
"T. c #25F950",
"R. c #8C948D",
"E. c #8F9790",
"W. c #939A93",
"Q. c #989E97",
"!. c #999E98",
"~. c #9DB49F",
"^. c #A4ABA5",
"/. c #A2B8A5",
"(. c #AFBBAF",
"). c #B0B5AF",
"_. c #B1B6B1",
"`. c #B4BCB3",
"'. c #9DC3A3",
"]. c #96CDA0",
"[. c #B5C2B4",
"{. c #B8C1B6",
"}. c #B6C2B8",
"|. c #BAC5B9",
" X c #BDCABC",
".X c #C3CAC2",
"XX c #CDD2CC",
"oX c None",
"OX c black",
"+X c black",
"@X c black",
"#X c black",
"$X c black",
"%X c black",
"&X c black",
"*X c black",
"=X c black",
"-X c black",
";X c black",
":X c black",
">X c black",
",X c black",
"<X c black",
"1X c black",
"2X c black",
"3X c black",
"4X c black",
"5X c black",
"6X c black",
"7X c black",
"8X c black",
"9X c black",
"0X c black",
"qX c black",
"wX c black",
"eX c black",
"rX c black",
"tX c black",
"yX c black",
"uX c black",
"iX c black",
"pX c black",
"aX c black",
"sX c black",
"dX c black",
"fX c black",
"gX c black",
"hX c black",
"jX c black",
"kX c black",
"lX c black",
"zX c black",
"xX c black",
"cX c black",
"vX c black",
"bX c black",
"nX c black",
"mX c black",
"MX c black",
"NX c black",
"BX c black",
"VX c black",
"CX c black",
"ZX c black",
"AX c black",
"SX c black",
"DX c black",
"FX c black",
"GX c black",
"HX c black",
"JX c black",
"KX c black",
"LX c black",
"PX c black",
"IX c black",
"UX c black",
/* pixels */
"oXoXoXoXoXoXoXoXoXoXoXoXoXoXoX.X XoXoXoXoXoXoXoXoXoXoXoXoXoXoXoX",
"oXoXoXoXoXoXoXoXoXoXoXA.a < . 3 3 , u h.S.oXoXoXoXoXoXoXoXoXoXoX",
"oXoXoXoXoXoXoXoX'.x.X.) X X   } ; o o o o [ x.].oXoXoXoXoXoXoXoX",
"oXoXoXoXoXoXoXB._ K.a.` ] | &.z.:.*.@.> ) 8.U.<.B.oXoXoXoXoXoXoX",
"oXoXoXoXoXoX1 X ) e.I.r. .X   > o   X { 6.U.s.' X 1 oXoXoXoXoXoX",
"oXoXoXoXoX1 X X } 7.P.p.` X X { ; X X ) r.I.w.+.X X 1 oXoXoXoXoX",
"oXoXoXoX= X X @.} _ e.P.4. .*.z.:.;.#.O.L.d.1...&.X X 1 oXoXoXoX",
"oXoXoXN.] o | } ; ; 2.P.a.O.{ &.| | ..D.T.w.+.} | @.X X M.oXoXoX",
"oXoX/.3 | &.{ o } &.>.e.J.4.] | | } 3.U.d.c.:.} { } } X . ~.oXoX",
"oXoXc @.&.:.X o ;.;.; <.P.p.o.:.=...y.I.w.$.j.;.> . &.o o s oXoX",
"oX`.&.&.j.3 - 2 j.3 > ] i.I.9.,.=.0.Y.d.5.&.&.j.3 - - &.- : (.oX",
"oXZ.&.&.k.3 : g.6 3 < =.3.L.a.%...r.I.t.z.u u u j.: - -.: : C.oX",
"oXl 1 -.i 1 u i 1 1 i u { r.P.9.7.L.a.o.u a 1 1 a 1 : 6 a < s oX",
"oX9 = x 1 = d 5 5 5 h.1 1 5.P.d.a.I.9.| 1 c 1 1 5 a * * g.% 4 oX",
"|.= = c 4 4 h.t y d d y y j.t.H.f.a.l.i t d p = 4 v.5 = x * & }.",
"}.9 9 v s p v.0 s F s p c a %.F.G.9.a v p 0 v 0 p m.0 9 c 4 4 [.",
"|.l s n.F v N.l l n.c z F r u q.u.*.s U l z n.F F V.z s b.s r [.",
"{.q 8 S 8 8 S 8 8 z r 8 q z 8 t u p F l r z z r r F 7 7 S 7 + `.",
"XXw r D 8 8 B w r r S 8 8 B S k z Y Y j j W k j j S 7 8 Y w w XX",
"oXA k D k w k B k k I k w e B W W D k k B I k k S h 8 j I k A oX",
"oX( N N T e e T h h h R h e e D A Z Z A Q N N N Q $ # T h h ( oX",
"oX^.n g R h g V H g g g H K A H A A Q R V V V R A g $ T g g ^.oX",
"oXoXm g n G @ f K C f f g n K / / R V n N V K E V g G n g m oXoX",
"oXoXW.b f J n f f G G f b n m L J C M n n P E G C n J f f W.oXoX",
"oXoXoXP n f L n f f C E C n m K G C C J P J C m M L f n P oXoXoX",
"oXoXoXoXf f f L n f f f M J P ( ^ ! L C f f n m L f n m oXoXoXoX",
"oXoXoXoX).n n b J G f b b n n J M n n n n n L L @ f M `.oXoXoXoX",
"oXoXoXoXoX_.b n f m L P M n M J C m m C P P J n f f _.oXoXoXoXoX",
"oXoXoXoXoXoXoXL @ f f b J L J ! P J L J b f f f J oXoXoXoXoXoXoX",
"oXoXoXoXoXoXoXoXE.b f f f f f M n @ f f f f b R.oXoXoXoXoXoXoXoX",
"oXoXoXoXoXoXoXoXoXoXQ.~ b O O M n f @ n ~ !.oXoXoXoXoXoXoXoXoXoX",
"oXoXoXoXoXoXoXoXoXoXoXoXoX.X`.^.^.`..XoXoXoXoXoXoXoXoXoXoXoXoXoX"
};
