/* XPM */
static char * play_Normal[] = {
"16 16 182 2",
"  	c None",
". 	c #3051E2",
"+ 	c #5773E8",
"@ 	c #526EE7",
"# 	c #1E40DE",
"$ 	c #5A77E8",
"% 	c #94ACF0",
"& 	c #A8BDF3",
"* 	c #A5BDF3",
"= 	c #A7BDF3",
"- 	c #ACC0F4",
"; 	c #7D97ED",
"> 	c #3B5EE5",
", 	c #193DDE",
"' 	c #7692EC",
") 	c #8AA8F0",
"! 	c #89ADF2",
"~ 	c #89B1F3",
"{ 	c #89B2F4",
"] 	c #8AB0F3",
"^ 	c #8AACF1",
"/ 	c #93ADF0",
"( 	c #4264E5",
"_ 	c #052BDA",
": 	c #5F80E9",
"< 	c #7197ED",
"[ 	c #76A3EF",
"} 	c #B4CFF5",
"| 	c #6EA8ED",
"1 	c #71B1F8",
"2 	c #73B0F6",
"3 	c #72ADF5",
"4 	c #72A7F2",
"5 	c #73A0F0",
"6 	c #799BED",
"7 	c #2B51E1",
"8 	c #244BE0",
"9 	c #5A85EA",
"0 	c #5991EF",
"a 	c #82B2F0",
"b 	c #EFF7FD",
"c 	c #EFF7FE",
"d 	c #9AC9F0",
"e 	c #339BEF",
"f 	c #4DA8F9",
"g 	c #5EA6F6",
"h 	c #5B9AF1",
"i 	c #5C8FED",
"j 	c #5F84E9",
"k 	c #062BCD",
"l 	c #0227DA",
"m 	c #3A65E5",
"n 	c #417AE9",
"o 	c #418BF0",
"p 	c #5DA4EF",
"q 	c #EAF5FE",
"r 	c #E5F4FE",
"s 	c #E6F5FF",
"t 	c #E1F1FB",
"u 	c #5EB1EC",
"v 	c #0885EF",
"w 	c #358FF4",
"x 	c #4588EE",
"y 	c #4577E8",
"z 	c #2149E0",
"A 	c #0A35DF",
"B 	c #2A5EE2",
"C 	c #2970E9",
"D 	c #187BF0",
"E 	c #4FA4F0",
"F 	c #EBF7FF",
"G 	c #E5F5FE",
"H 	c #E5F4FF",
"I 	c #E9F6FF",
"J 	c #D0E6F7",
"K 	c #4596E5",
"L 	c #1771E9",
"M 	c #2E6CE7",
"N 	c #2453E5",
"O 	c #021A9E",
"P 	c #0F3BDF",
"Q 	c #1A54E1",
"R 	c #1869E9",
"S 	c #187FF2",
"T 	c #4FA7F2",
"U 	c #E7F4FF",
"V 	c #E7F5FF",
"W 	c #E6F4FE",
"X 	c #EDF7FF",
"Y 	c #80A9DE",
"Z 	c #1962E7",
"` 	c #184BE1",
" .	c #0422BB",
"..	c #0D39E0",
"+.	c #1A53E0",
"@.	c #1968E8",
"#.	c #1C80F2",
"$.	c #58ADF1",
"%.	c #ECF8FF",
"&.	c #E8F7FF",
"*.	c #E8F7FE",
"=.	c #E7F6FE",
"-.	c #F4FEFF",
";.	c #A8C5DE",
">.	c #236BC9",
",.	c #1960E6",
"'.	c #174BE1",
").	c #021DAD",
"!.	c #082EDD",
"~.	c #194EDF",
"{.	c #1D67E7",
"].	c #2988F1",
"^.	c #64B2F0",
"/.	c #EEFAFF",
"(.	c #EBF8FE",
"_.	c #EBF8FF",
":.	c #F1FCFF",
"<.	c #C9E1EA",
"[.	c #4A97C9",
"}.	c #268BE7",
"|.	c #2179ED",
"1.	c #1A5BE4",
"2.	c #1242E4",
"3.	c #1443E0",
"4.	c #286AE6",
"5.	c #378CEF",
"6.	c #6EB5EF",
"7.	c #F0F9FE",
"8.	c #E1EFF5",
"9.	c #74B3CE",
"0.	c #43ADE3",
"a.	c #4BB3F9",
"b.	c #3C9BF3",
"c.	c #2E7DEB",
"d.	c #1E59E1",
"e.	c #0A2DC1",
"f.	c #0B34DB",
"g.	c #306BE4",
"h.	c #428FED",
"i.	c #66AEE9",
"j.	c #EAF3F6",
"k.	c #90BDCF",
"l.	c #59B6D9",
"m.	c #70D6FB",
"n.	c #66CAF9",
"o.	c #58B5F6",
"p.	c #489DF1",
"q.	c #387EE9",
"r.	c #2055E7",
"s.	c #031B9D",
"t.	c #1947DD",
"u.	c #498EEB",
"v.	c #5BABF1",
"w.	c #5AB1E2",
"x.	c #7BD8F9",
"y.	c #84E4FB",
"z.	c #80DFFB",
"A.	c #73D0F8",
"B.	c #63B7F4",
"C.	c #519CEE",
"D.	c #3877E9",
"E.	c #092EC7",
"F.	c #1947D4",
"G.	c #59A1F0",
"H.	c #74C8F5",
"I.	c #87E0FA",
"J.	c #95F2FC",
"K.	c #8EE9FB",
"L.	c #7CD3F7",
"M.	c #69B6F2",
"N.	c #4182F2",
"O.	c #0C31C4",
"P.	c #0D36D6",
"Q.	c #2B5FD9",
"R.	c #56A0F5",
"S.	c #70C4FB",
"T.	c #69B9FB",
"U.	c #4689F3",
"V.	c #1942B9",
"W.	c #02178A",
"X.	c #00138C",
"Y.	c #001081",
"          .   + @               ",
"      # $ % & * = - ; >         ",
"    , ' ) ! ~ { { ] ^ / (       ",
"  _ : < [ } | 1 2 3 4 5 6 7     ",
"  8 9 0 a b c d e f g h i j k   ",
"l m n o p q r s t u v w x y z   ",
"A B C D E F G H r I J K L M N O ",
"P Q R S T F U V V W r X Y Z `  .",
"..+.@.#.$.%.&.I *.=.-.;.>.,.'.).",
"!.~.{.].^./.(._.:.<.[.}.|.1.2.  ",
"  3.4.5.6.7./.8.9.0.a.b.c.d.e.  ",
"  f.g.h.i.j.k.l.m.n.o.p.q.r.s.  ",
"    t.u.v.w.x.y.z.A.B.C.D.E.    ",
"      F.G.H.I.J.K.L.M.N.O.      ",
"        P.Q.R.S.T.U.V.W.        ",
"              X.Y.              "};
