/* XPM */
static char *script_red[] = {
/* columns rows colors chars-per-pixel */
"50 50 19 1 ",
"  c black",
". c #1F0303",
"X c #3F0707",
"o c #4F0808",
"O c gray50",
"+ c #8E0F0F",
"@ c #AD1313",
"# c #BD1515",
"$ c #DD1818",
"% c #ED1A1A",
"& c #FD1C1C",
"* c #9F9F9F",
"= c #CCCC99",
"- c #DFDFDF",
"; c gray96",
": c gray97",
"> c #F9F9F9",
", c gray100",
"< c None",
/* pixels */
"<<<<<<<<<<<<<<<<,,,,,,,,,,,,,,,,,,,,,,,<<<<<<<<<<<",
"<<<<<<<<<<<<<<<,,,,,,,,,,,,,,,,,,,,,,,,,<<<<<<<<<<",
"<<<<<<<<<<<<<<,,*          ,          ,,,<<<<<<<<<",
"<<<<<<<<<<<<,,,,                       ,,,,;<<<<<<",
"<<<<<<<<<<,,,,,,  ,  ,,  ,   ,  ,,  ,  ,,,,,,<<<<<",
"<<<<<<<<<<,,                               ,,<<<<<",
"<<<<<<<<<<,,                               ,,<<<<<",
"<<<<<<<<<<,,  && +&  &&  &&  &  &&  &&&&&  ,,<<<<<",
"<<<<<<<<<<,O &&&  &# &&  &&  &% &&  &&&&&  ,,<<<<<",
"<<<<<<<<<>,  &&&  && &&& &&  && &&& &&&&&  ,,<<<<<",
"<<<<<<<<<,,  &&&&&&&&&&&&&&&&&&&&&&&&&&&&  ,,<<<<<",
"<<<<<<<<<,,  &&&&&&&&&&&&&&&&&&&&&&&&&&&&  ,,<<<<<",
"<<<<<<<<<,,  &&&  &&  &&   && &   &    o&  ,,<<<<<",
"<<<<<<<<<,,  && & & &&&& & && & & &&& &&&  ,,<<<<<",
"<<<<<<<<<,,  && &&& &&&$&  && &   &&& &&&  ,,<<<<<",
"<<<<<<<<<,,  &&& && &&& &  & && &&&&&X&&%  ,,<<<<<",
"<<<<<<<<<,, &&@& && & & && & & &&&&& &&&   ,,<<<<<",
"<<<<<<<<<,  &&   &&   & && & & &&&&& &&&   ,,<<<<<",
"<<<<<<<<,,  &&&&&&&&&&&&&&&&&&&&&&&&&&&&   ,,<<<<<",
"<<<<<<<<,,  &&&&&&&&&&&&&&&&&&&&&&&&&&&&   ,,<<<<<",
"<<<<<<<<,,  &&&&&&&&&&&&&&&&&&&&&&&&&&&&   ,,<<<<<",
"<<<<<<<<,,  &&&&&&&&&&&&&&&&&&&&&&&&&&&&   ,,<<<<<",
"<<<<<<<<,,  &&&&&&&&&&&&&&&&&&&&&&&&&&&&   ,,<<<<<",
"<<<<<<<<,,  &&&&&&&&&&&&&&&&&&&&&&&&&&&&   ,,<<<<<",
"<<<<<<<<,, &&&&&&&&&&&&&&&&&&&&&&&&&&&&    ,,<<<<<",
"<<<<<<<;,  &&&&&&&&&&&&&&&&&&&&&&&&&&&&    ,,<<<<<",
"<<<<<<<,,  &&&&&&&&&&&&&&&&&&&&&&&&&&&&    ,,<<<<<",
"<<<<<<<,,  &&&&&&&&&&&&&&&&&&&&&&&&&&&&    ,,<<<<<",
"<<<<<<<,,  &&&&&&&&&&&&&&&&&&&&&&&&&&&&    ,,<<<<<",
"<<<<<<<,,  &&&&&&&&&&&&&&&&&&&&&&&&&&&&    ,,<<<<<",
"<<<<<<<,,  &&&&&&&&&&&&&&&&&&&&&&&&&&&&    ,,<<<<<",
"<<<<<<<,, &&&&&&&&&&&&&&&&&&&&&&&&&&&&. =  ,,<<<<<",
"<<<<<<<,  &&&&&&&&&&&&&&&&&&&&&&&&&&&&  =  ,,<<<<<",
"<<<<<<,,  &&&&&&&&&&&&&&&&&&&&&&&&&&&&  =  ,,<<<<<",
"<<<<<<,,  &&&&&&&&&&&&&&&&&&&&&&&&&&&&  =  ,,<<<<<",
"<<<<<<,,  &&&&&&&&&&&&&&&&&&&&&&&&&&&&  =  ,,<<<<<",
"<<<<<<,,  &&&&&&&&&&&&&&&&&&&&&&&&&&&&     ,,<<<<<",
"<<<<<<,,  &&&&&&&&&&&&&&&&&&&&&&&&&&&X =   ,,<<<<<",
"<<<<<<,- &&&&&&&&&&&&&&&&&&&&&&&&&&&&  =   ,,<<<<<",
"<<<<<,,  &&&&&&&&&&&&&&&&&&&&&&&&&&&&  =   ,,<<<<<",
"<<<<<,,  &&&&&&&&&&&&&&&&&&&&&&&&&&&&  =   ,,<<<<<",
"<<<<<,,  &&&&&&&&&&&&&&&&&&&&&&&&&&&&  =   ,,<<<<<",
"<<<<<,,  &&&&&&&&&&&&&&&&&&&&&&&&&&&&  =   ,,<<<<<",
"<<<<<,,                               ==   ,,<<<<<",
"<<<<<,,                               ==   ,,<<<<<",
"<<<<<<,,                                =  ,,<<<<<",
"<<<<<<,,                                   ,,<<<<<",
"<<<<<<<,,,,,                               ,,<<<<<",
"<<<<<<<<<<,,,,,,,,,,,,,,,,,,,,,,,,,,,,,,,,,,,<<<<<",
"<<<<<<<<<<<,,,,,,,,,,,,,,,,,,,,,,,,,,,,,,,,,<<<<<<"
};
