/* XPM */
static const char * startscript[] = {
"32 32 104 2",
"  	c None",
". 	c #A0A0A0",
"+ 	c #727272",
"@ 	c #5B5B5B",
"# 	c #767676",
"$ 	c #D9D9D9",
"% 	c #FEFEFE",
"& 	c #FFFFFF",
"* 	c #737373",
"= 	c #D7D7D7",
"- 	c #FCFCFC",
"; 	c #FBFBFB",
"> 	c #616161",
", 	c #F8F8F8",
"' 	c #FAFAFA",
") 	c #F9F9F9",
"! 	c #606060",
"~ 	c #F6F6F6",
"{ 	c #F7F7F7",
"] 	c #D8D8D8",
"^ 	c #F3F3F3",
"/ 	c #292929",
"( 	c #9B9B9B",
"_ 	c #F4F4F4",
": 	c #5E5E5E",
"< 	c #EFEFEF",
"[ 	c #2A2A29",
"} 	c #252524",
"| 	c #595958",
"1 	c #EBEBEB",
"2 	c #2E2E2D",
"3 	c #2B2B2A",
"4 	c #313130",
"5 	c #EAEAEA",
"6 	c #E7E7E7",
"7 	c #333332",
"8 	c #323231",
"9 	c #2C2C2B",
"0 	c #656564",
"a 	c #E6E6E6",
"b 	c #5C5C5C",
"c 	c #E2E2E2",
"d 	c #E3E3E3",
"e 	c #383837",
"f 	c #343433",
"g 	c #393939",
"h 	c #A6A6A6",
"i 	c #5D5D5D",
"j 	c #DEDEDE",
"k 	c #DDDDDD",
"l 	c #3E3E3D",
"m 	c #3D3D3C",
"n 	c #353534",
"o 	c #6D6D6C",
"p 	c #D2D2D2",
"q 	c #DADADA",
"r 	c #444443",
"s 	c #414140",
"t 	c #939392",
"u 	c #D5D5D5",
"v 	c #D4D4D4",
"w 	c #4A4A49",
"x 	c #616160",
"y 	c #C6C6C6",
"z 	c #D1D1D1",
"A 	c #D0D0D0",
"B 	c #50504F",
"C 	c #929292",
"D 	c #DFDFDF",
"E 	c #D6D6D6",
"F 	c #5A5A5A",
"G 	c #CCCCCC",
"H 	c #CDCDCD",
"I 	c #565655",
"J 	c #676766",
"K 	c #C1C1C0",
"L 	c #CECECE",
"M 	c #C8C8C8",
"N 	c #5B5B5A",
"O 	c #909090",
"P 	c #CFCFCF",
"Q 	c #595959",
"R 	c #C4C4C4",
"S 	c #C3C3C3",
"T 	c #60605F",
"U 	c #6C6C6B",
"V 	c #BCBCBB",
"W 	c #C0C0C0",
"X 	c #C1C1C1",
"Y 	c #8E8E8E",
"Z 	c #CACACA",
"` 	c #BBBBBB",
" .	c #BDBDBD",
"..	c #BCBCBC",
"+.	c #D3D3D3",
"@.	c #BEBEBE",
"#.	c #6E6E6E",
"$.	c #A2A2A2",
"%.	c #BABABA",
"&.	c #636363",
"*.	c #A1A1A1",
"=.	c #B8B8B8",
"-.	c #B7B7B7",
";.	c #A9A9A9",
"                                                                ",
"                                                                ",
"                                                                ",
"                                                                ",
"                                                                ",
"    . + @ @ @ @ @ @ @ @ @ @ @ @ @ @ @ @ @ @ @ @ @ @ @ @ + .     ",
"  . # $ % % & & & % & & % % % & % % % % % % & % % % % % $ # .   ",
"  * = - - - - - - - - ; - ; - - - - ; - - - - - - - - - - = *   ",
"  > , ' ' ' ' ) ) ' ) ) ) ' ) ) ' ) ' ) ) ' ) ) ) ) ) ) ' , >   ",
"  ! ~ ~ ~ ~ ~ ~ { ~ ~ ~ ~ ] ~ ~ { ~ { { ~ ~ ~ ~ { ~ { ~ ~ ~ !   ",
"  ! ^ ^ ^ ^ ^ ^ ^ ^ ^ ^ ^ / ( ^ ^ ^ ^ ^ ^ ^ ^ ^ _ ^ ^ ^ ^ ^ !   ",
"  : < < < < < < < < < < < [ } | = < < < < < < < < < < < < < :   ",
"  : 1 1 1 1 1 1 1 1 1 1 1 2 2 3 4 . 1 1 1 5 1 1 1 1 1 1 1 1 :   ",
"  : 6 6 6 6 6 6 6 6 6 6 6 7 7 7 8 9 0 = a a 6 6 a 6 6 6 6 6 :   ",
"  b c d d d d d c d d d d e e e e e f g h d d d d c d d d c b   ",
"  i j j k k k j j j j j j l l l l l l m n o p j j j j j j j i   ",
"  @ q q q q q q $ q $ $ $ r r r r r r r r s t $ $ q q $ q q @   ",
"  @ u u v v u v u u v u u w w w w w w w x y k v v u u v u u @   ",
"  @ z A A A A z z z z A z B B B B B B C D E A A A A A A A z @   ",
"  F G G G G G H G G G G G I I I I J K q L G G G G H H G G G F   ",
"  F M M M M M M M M M M M N N N O ] P M M M M M M M M M M M F   ",
"  Q R R R R R R R R S R R T U V E y R S R R R S R S R S R R Q   ",
"  Q W W X X X W W W W W W Y v Z W W X X W W W W X W W W W W Q   ",
"  Q `  ..... . . . . . . .+.@. . . . . . ... ... . . ... .` Q   ",
"  #.$.%.` ` %.%.%.%.%.%.%.%.%.` %.%.%.%.%.%.%.%.%.%.` %.%.$.#.  ",
"  $.&.*.=.=.-.=.-.-.=.=.=.-.=.=.-.=.-.=.-.-.-.-.=.=.=.-.*.&.$.  ",
"    ;.#.@ @ @ @ @ @ @ @ @ @ @ @ @ @ @ @ @ @ @ @ @ @ @ @ #.;.    ",
"      v v v v v v v v v v v v v v v v v v v v v v v v v v       ",
"                                                                ",
"                                                                ",
"                                                                ",
"                                                                "};
