/* XPM */
static char * arr1_right[] = {
"50 50 34 1",
" 	c None",
".	c #005688",
"+	c #005689",
"@	c #00568A",
"#	c #005589",
"$	c #004B82",
"%	c #004D82",
"&	c #004E84",
"*	c #004F84",
"=	c #005085",
"-	c #005286",
";	c #005387",
">	c #004C82",
",	c #005185",
"'	c #005488",
")	c #004E83",
"!	c #005588",
"~	c #004D83",
"{	c #004B81",
"]	c #005186",
"^	c #005587",
"/	c #005487",
"(	c #00578A",
"_	c #004C83",
":	c #00588A",
"<	c #005486",
"[	c #005789",
"}	c #005386",
"|	c #005788",
"1	c #005287",
"2	c #005489",
"3	c #005388",
"4	c #005389",
"5	c #00558A",
"                                                  ",
"                                                  ",
"                     .+@++@+.                     ",
"                 +#.$%&*==*&%$.#+                 ",
"               -;>,'++++++++++',>;-               ",
"             '=)'++++++++++++++++')='             ",
"            ->!++++++++++++++++++++!>-            ",
"          #~-++++++++++++++++++++++++-~#          ",
"         '~!++++++++++++++++++++++++++!~'         ",
"        +{++++++++++++++++++++++++++++++{#        ",
"       +>+++++++'-+++++++++++++++++++++++>+       ",
"       )!++++++'+#*]+++++++++++++++++++++!~       ",
"      ^-++++++#]   /~-++++++++++++++++++++-/      ",
"     (~+++++++!+     /~;+++++++++++++++++++_:     ",
"     =!+++++++!+      <;%'+++++++++++++++++!=     ",
"    [&++++++++!+        ;/~'++++++++++++++++&[    ",
"    ;'++++++++!+          #!~!++++++++++++++';    ",
"   +>+++++++++!+            +;)!+++++++++++++>+   ",
"   +,+++++++++!+              /=*++++++++++++,(   ",
"   ''+++++++++!+                })=++++++++++''   ",
"   >++++++++++!+                  ;~,+++++++++>   ",
"  |~++++++++++!+                    /~-+++++++~+  ",
"  +&++++++++++!+                     +!%;+++++&(  ",
"  [*++++++++++!+                       +<]++++*[  ",
"  +=++++++++++!+                         ;-+++=+  ",
"  +=++++++++++!+                         @*+++=+  ",
"  [*++++++++++!+                        }1#+++*[  ",
"  +&++++++++++!+                      .2>#++++&+  ",
"  +~++++++++++!+                     !>1++++++~+  ",
"   >++++++++++!+                   '~-++++++++>   ",
"   ''+++++++++!+                 1~,+++++++++'^   ",
"   @,+++++++++!+               ;&=+++++++++++,+   ",
"   (>+++++++++!+             @]*#++++++++++++>(   ",
"    ;'++++++++!+           [/&!+++++++++++++';    ",
"    [&++++++++!+         !/)!+++++++++++++++&[    ",
"     =!+++++++!+       ;/~'++++++++++++++++!=     ",
"     :_+++++++!+     1;~/++++++++++++++++++_:     ",
"      /-++++++!3    /%;+++++++++++++++++++-/      ",
"       ~!++++++-! |~-++++++++++++++++++++!~       ",
"       [>+++++++,~-++++++++++++++++++++++>[       ",
"        +>++++++++++++++++++++++++++++++>+        ",
"         ^>!++++++++++++++++++++++++++!>!         ",
"          4~1++++++++++++++++++++++++1~4          ",
"            '>!++++++++++++++++++++!>'            ",
"             #=)'++++++++++++++++')=#             ",
"               ];>,'++++++++++',>;]               ",
"                 '.!$~&*==*&~$!+'                 ",
"                     .!5++5!.                     ",
"                                                  ",
"                                                  "};
