/* XPM */
static char * arr1_dn[] = {
"50 50 34 1",
" 	c None",
".	c #005788",
"+	c #005689",
"@	c #005789",
"#	c #005488",
"$	c #004C82",
"%	c #004D83",
"&	c #004E84",
"*	c #004F84",
"=	c #005085",
"-	c #00568A",
";	c #00578A",
">	c #005387",
",	c #005185",
"'	c #00588A",
")	c #005587",
"!	c #005588",
"~	c #004C83",
"{	c #005487",
"]	c #004E83",
"^	c #005286",
"/	c #004B81",
"(	c #005589",
"_	c #005389",
":	c #005287",
"<	c #005186",
"[	c #005388",
"}	c #005688",
"|	c #004B82",
"1	c #004D82",
"2	c #005486",
"3	c #00558A",
"4	c #005386",
"5	c #005489",
"                                                  ",
"                                                  ",
"                     .+@++@++                     ",
"                 ++#$%&*==*&%$#-;                 ",
"               @>$,#++++++++++#,$>@               ",
"             ;=&#++++++++++++++++#&='             ",
"            )%!++++++++++++++++++++!~{            ",
"          +]^++++++++++++++++++++++++^%@          ",
"         +$!++++++++++++++++++++++++++!$+         ",
"        #/++++++++++++++++++++++++++++++$)        ",
"       (%++++++++++++++++++++++++++++++++$_       ",
"       %!++++++++++++++++++++++++++++++++!%       ",
"      ^^++++++++++++++++++++++++++++++++++:#      ",
"     #$++++++++++++++++++++++++++++++++++++$(     ",
"     =!+++++(!!!!!!!!!!!!!!!!!!!!!!!!!+++++!=     ",
"    ^]+++++#<++++++++++++++++++++++++[^+++++]<    ",
"    >#++++#+                          !,++++#>    ",
"   +$+++++^(                           %+++++$#   ",
"   (,++++++*                          .^+++++,}   ",
"   }#++++++<{                         %++++++#!   ",
"   |++++++++%                        {^+++++++|   ",
"  }1++++++++^{                      :1++++++++%}  ",
"  +&+++++++++%2                     >>++++++++&!  ",
"  -*+++++++++>>                    >%+++++++++*3  ",
"  +=++++++++++1>                   {{+++++++++=+  ",
"  +=++++++++++#{                  !%++++++++++=+  ",
"  -*+++++++++++%(                 {#++++++++++*3  ",
"  +&+++++++++++#!                @]+++++++++++&!  ",
"  }1++++++++++++%+               {!+++++++++++%}  ",
"   |++++++++++++!>              -&++++++++++++|   ",
"   }#++++++++++++]{             <!+++++++++++#!   ",
"   (,++++++++++++!=            >*++++++++++++,+   ",
"   +$+++++++++++++*4           &(++++++++++++$#   ",
"    >#+++++++++++++]          :=++++++++++++#>    ",
"    ^]+++++++++++++=>         %+++++++++++++]<    ",
"     =!+++++++++++++%        #,++++++++++++!=     ",
"     #$+++++++++++++,{       %+++++++++++++$(     ",
"      ^^+++++++++++++%+     !^++++++++++++:#      ",
"       %!++++++++++++^!    }$++++++++++++!%       ",
"       (%+++++++++++++1+   5:++++++++++++$_       ",
"        #/++++++++++++>2  4$++++++++++++$!        ",
"         ($!+++++++++++<>-:(++++++++++!$+         ",
"          +%^+++++++++++^*(++++++++++^%@          ",
"            {~!++++++++++++++++++++!~{            ",
"             '=&#++++++++++++++++#&='             ",
"               @>$,#++++++++++#,$>@               ",
"                 +;#$%&*==*&%$)+;                 ",
"                     +;@++@++                     ",
"                                                  ",
"                                                  "};
