/* XPM */
static char * arr_left[] = {
"16 16 30 1",
" 	c #F6F6F6",
".	c #FAFAFA",
"+	c #FFFFFF",
"@	c #FDFDFD",
"#	c #F8F8F8",
"$	c #F7F7F7",
"%	c #090909",
"&	c #010101",
"*	c #F5F5F5",
"=	c #E8E8E8",
"-	c #E7E7E7",
";	c #050505",
">	c #020202",
",	c #040404",
"'	c #000000",
")	c #F0F0F0",
"!	c #FEFEFE",
"~	c #0D0D0D",
"{	c #060606",
"]	c #0B0B0B",
"^	c #F2F2F2",
"/	c #EBEBEB",
"(	c #0C0C0C",
"_	c #0A0A0A",
":	c #080808",
"<	c #151515",
"[	c #EAEAEA",
"}	c #070707",
"|	c #030303",
"1	c #161616",
" .+++.@+#+++#$%&",
"++#*@+=+++-#;>,'",
"++)+.+!.++~''{']",
".^+!/+.+''''''('",
"+++++!_':'<','''",
" +[):'';'}'>&(';",
"@+|}''&;'1','|'}",
";''''&{'{']',]'|",
";''''&{'{']',]'|",
"@+|}''&;'1','|'}",
" +[):'';'}'>&(';",
"+++++!_':'<','''",
".^+!/+.+''''''('",
"++)+.+!.++~''{']",
"++#*@+=+++-#;>,'",
" .+++.@+#+++#$%&"};
