/* XPM */
static char * arr_dn[] = {
"16 16 33 1",
" 	c #010101",
".	c #000000",
"+	c #030303",
"@	c #0F0F0F",
"#	c #0C0C0C",
"$	c #040404",
"%	c #121212",
"&	c #050505",
"*	c #F4F4F4",
"=	c #070707",
"-	c #060606",
";	c #FFFFFF",
">	c #0E0E0E",
",	c #0A0A0A",
"'	c #F2F2F2",
")	c #080808",
"!	c #FEFEFE",
"~	c #151515",
"{	c #0D0D0D",
"]	c #F7F7F7",
"^	c #F3F3F3",
"/	c #0B0B0B",
"(	c #EDEDED",
"_	c #F6F6F6",
":	c #FBFBFB",
"<	c #EFEFEF",
"[	c #F8F8F8",
"}	c #111111",
"|	c #FDFDFD",
"1	c #F5F5F5",
"2	c #FCFCFC",
"3	c #FAFAFA",
"4	c #EEEEEE",
" .+.@..##..@.+. ",
"$%&..$+..+$..&%$",
"*. =-..++..-= .*",
";>$.. ,++, ..$>;",
";'.).#....#.).';",
";!~.+$.{{.$+.~!;",
";]^> .&..&. >^];",
";!;.../../...;!;",
";!(;-..++..-;(!;",
"_:;^&+#..#+&^;:_",
"!;<!]..{{..]!<;!",
"[;;;;}....};;;;[",
"|:121*#&&#*121:|",
"3;;;!_)..)_!;;;3",
";^4;[;3&&3;[;4^;",
"];;;1;;..;;1;;;]"};
