/* XPM */
static const char * icon_connect[] = {
/* columns rows colors chars-per-pixel */
"35 35 19 1",
"  c #000000",
". c #010100",
"X c #010101",
"o c #020202",
"O c #030302",
"+ c #030303",
"@ c #040403",
"# c #040404",
"$ c #050504",
"% c #050505",
"& c #060605",
"* c #060606",
"= c #070706",
"- c #080807",
"; c #080808",
": c #090908",
"> c #0A0A09",
", c #0B0B0A",
"< c None",
/* pixels */
"<<<<<<<<<<<<<<<<<<<<<<<<<<<<<<<<<<<",
"<<<<<<<<<<<<<<<<<<<<<<<<<<<<<<<<<<<",
"<<<<<<<<<<<<<<<<<<<<<<<<<<<<<<<<<<<",
"<<<<<<<<<<<<<<<<<<<<<<<<<<<<<<<<<<<",
"<<<<<<<<<<<<<<<<<<<<<<<<<<<<<<<<<<<",
"<<<<<<<<<<<<<<<<<<<<<<<<<<<<<<<<<<<",
"<<<<<<<<<<<<<<<<<<<<<<<<<<<<<<<<<<<",
"<<<<<<<<<<<<<<<<<<<<<<<<<<<<<<<<<<<",
"<<<<<<<<<<<<<<<<<<<<<<<<<<<<<<<<<<<",
"<<<<<<<<<<<<<<<<<<<<<<<<<<<<<<<<<<<",
"<<<<<<<<<<<<<<<<<<<<<<<<<<<<<<<<<<<",
"<<<<<<<<<  %-%  <<<<<<<>  <<<<<<<<<",
"<<<<<<<    -    <<<<<<<%   <<<<<<<<",
"<<<<<<    %@   -<<<<<<<   %%<<<<<<<",
"<<<<<   %%%<<<<<<<  %@   %%  <<<<<<",
"<<<<<   %@ <<<<<<<%%%   %%   %<<<<<",
"<<-<   %%   <,<<<<>%   %%    >%<<<<",
"<%   %%%   %%   <<<<<<<-   @-    <<",
"<    %%   %%    <<<<<<<    -    %<<",
"<<<<>%   %%<<<<<<<  %>   %-   <<<<<",
"<<<<<   %% <<<<<<< %%    -%  @<<<<<",
"<<<<<  %%  <<<<<<<%%    -    <<<<<<",
"<<<<<<%%   %%@  <<<<<<<>    <<<<<<<",
"<<<<<<<    %%   <<<<<<<%   <<<<<<<<",
"<<<<<<<<<%>%   %<<<<<<<< <<<<<<<<<<",
"<<<<<<<<<<<<<<<<<<<<<<<<<<<<<<<<<<<",
"<<<<<<<<<<<<<<<<<<<<<<<<<<<<<<<<<<<",
"<<<<<<<<<<<<<<<<<<<<<<<<<<<<<<<<<<<",
"<<<<<<<<<<<<<<<<<<<<<<<<<<<<<<<<<<<",
"<<<<<<<<<<<<<<<<<<<<<<<<<<<<<<<<<<<",
"<<<<<<<<<<<<<<<<<<<<<<<<<<<<<<<<<<<",
"<<<<<<<<<<<<<<<<<<<<<<<<<<<<<<<<<<<",
"<<<<<<<<<<<<<<<<<<<<<<<<<<<<<<<<<<<",
"<<<<<<<<<<<<<<<<<<<<<<<<<<<<<<<<<<<",
"<<<<<<<<<<<<<<<<<<<<<<<<<<<<<<<<<<<"
};
