/* XPM */
static char * download_wave[] = {
"32 32 416 2",
"  	c None",
". 	c #0073AD",
"+ 	c #0072B1",
"@ 	c #0072B3",
"# 	c #0071B4",
"$ 	c #0074B2",
"% 	c #0076AE",
"& 	c #0076B2",
"* 	c #0070B4",
"= 	c #006CBA",
"- 	c #006BC0",
"; 	c #006EC2",
"> 	c #006FBA",
", 	c #0071B2",
"' 	c #0076B1",
") 	c #006DAA",
"! 	c #006BAE",
"~ 	c #006BB7",
"{ 	c #006BBE",
"] 	c #006CBD",
"^ 	c #006DBA",
"/ 	c #0074B8",
"( 	c #0076B4",
"_ 	c #0074B0",
": 	c #0072AF",
"< 	c #0070B3",
"[ 	c #006FB6",
"} 	c #0071B6",
"| 	c #0075B6",
"1 	c #007AB3",
"2 	c #007CB2",
"3 	c #006EB6",
"4 	c #0076B0",
"5 	c #006EBB",
"6 	c #006BBD",
"7 	c #006BBB",
"8 	c #0070BB",
"9 	c #0076B6",
"0 	c #0077B2",
"a 	c #006FAA",
"b 	c #006EB8",
"c 	c #006CBB",
"d 	c #006DBC",
"e 	c #0072BC",
"f 	c #0073B9",
"g 	c #0075B2",
"h 	c #006EB3",
"i 	c #0073B7",
"j 	c #0076B5",
"k 	c #006DB5",
"l 	c #0075B4",
"m 	c #0078B9",
"n 	c #0073BA",
"o 	c #006AB6",
"p 	c #006FB3",
"q 	c #0074AE",
"r 	c #0073A9",
"s 	c #0071A8",
"t 	c #0070AC",
"u 	c #006DAF",
"v 	c #006BB2",
"w 	c #006EB9",
"x 	c #0073BC",
"y 	c #0077BD",
"z 	c #007ABE",
"A 	c #0075B5",
"B 	c #006DB3",
"C 	c #0069B4",
"D 	c #006BB5",
"E 	c #0073B5",
"F 	c #0074B7",
"G 	c #0075B8",
"H 	c #0072B5",
"I 	c #006EB0",
"J 	c #0068B1",
"K 	c #0067B2",
"L 	c #0061A7",
"M 	c #00629C",
"N 	c #00679B",
"O 	c #006C9A",
"P 	c #006B99",
"Q 	c #006798",
"R 	c #00649C",
"S 	c #0068A7",
"T 	c #006FB1",
"U 	c #0075BA",
"V 	c #0068B4",
"W 	c #006FB8",
"X 	c #0072B9",
"Y 	c #006AAE",
"Z 	c #005D9D",
"` 	c #004F8A",
" .	c #004C7F",
"..	c #00568A",
"+.	c #00669B",
"@.	c #0071A0",
"#.	c #00729F",
"$.	c #006E9D",
"%.	c #005E91",
"&.	c #005486",
"*.	c #00568D",
"=.	c #00619E",
"-.	c #006CAF",
";.	c #0072B7",
">.	c #0074B9",
",.	c #0069B6",
"'.	c #006AB2",
").	c #0073B4",
"!.	c #0072BB",
"~.	c #0074BB",
"{.	c #0067A5",
"].	c #00548C",
"^.	c #004B7E",
"/.	c #005291",
"(.	c #00558C",
"_.	c #005A93",
":.	c #0067A8",
"<.	c #006DB8",
"[.	c #006DB2",
"}.	c #006FB0",
"|.	c #0070B1",
"1.	c #0074BC",
"2.	c #0066A8",
"3.	c #005DA0",
"4.	c #00558E",
"5.	c #0071B9",
"6.	c #005890",
"7.	c #006AAF",
"8.	c #005891",
"9.	c #0075AD",
"0.	c #0074B5",
"a.	c #0073B2",
"b.	c #0078BC",
"c.	c #0068AC",
"d.	c #005389",
"e.	c #005892",
"f.	c #0069AB",
"g.	c #006FAE",
"h.	c #0079BD",
"i.	c #0074B1",
"j.	c #0075AF",
"k.	c #0068AA",
"l.	c #005A99",
"m.	c #00538A",
"n.	c #00518B",
"o.	c #004D8A",
"p.	c #00518C",
"q.	c #005993",
"r.	c #006BAB",
"s.	c #0074B6",
"t.	c #006CBC",
"u.	c #006EBD",
"v.	c #006BB9",
"w.	c #0068B2",
"x.	c #005B9F",
"y.	c #004A7E",
"z.	c #005276",
"A.	c #006BB0",
"B.	c #0067B0",
"C.	c #0062A3",
"D.	c #005C95",
"E.	c #004F77",
"F.	c #00558D",
"G.	c #00649F",
"H.	c #006DB1",
"I.	c #0072BA",
"J.	c #0073BD",
"K.	c #0070BC",
"L.	c #006BC2",
"M.	c #0069BE",
"N.	c #006BBA",
"O.	c #0066B0",
"P.	c #00518D",
"Q.	c #005977",
"R.	c #006FA2",
"S.	c #007DCC",
"T.	c #007BCC",
"U.	c #0074BD",
"V.	c #00689C",
"W.	c #005179",
"X.	c #0069AE",
"Y.	c #006FBD",
"Z.	c #006FC0",
"`.	c #006DC1",
" +	c #006CBE",
".+	c #006AB9",
"++	c #0061A6",
"@+	c #004C80",
"#+	c #00597B",
"$+	c #006D9F",
"%+	c #007AB9",
"&+	c #0077BE",
"*+	c #007BC8",
"=+	c #0075C3",
"-+	c #0078C1",
";+	c #0078C2",
">+	c #0080C7",
",+	c #0078B8",
"'+	c #006395",
")+	c #004E73",
"!+	c #005587",
"~+	c #0066A7",
"{+	c #006BB6",
"]+	c #006DBE",
"^+	c #006ABE",
"/+	c #0071BD",
"(+	c #006FB4",
"_+	c #00639C",
":+	c #005483",
"<+	c #005C8B",
"[+	c #0078B7",
"}+	c #0079C0",
"|+	c #007CC5",
"1+	c #005EA4",
"2+	c #0064A1",
"3+	c #007ABF",
"4+	c #0076B8",
"5+	c #005B90",
"6+	c #006095",
"7+	c #0067A3",
"8+	c #006FBC",
"9+	c #0069B8",
"0+	c #0074AF",
"a+	c #006291",
"b+	c #005185",
"c+	c #0066A2",
"d+	c #007BC1",
"e+	c #0079C3",
"f+	c #0069AD",
"g+	c #005492",
"h+	c #003D74",
"i+	c #004C78",
"j+	c #00578B",
"k+	c #0071B3",
"l+	c #0079C1",
"m+	c #00609C",
"n+	c #0077A9",
"o+	c #00689D",
"p+	c #006DAC",
"q+	c #006FB5",
"r+	c #006AB1",
"s+	c #0078B4",
"t+	c #0074AD",
"u+	c #0075AB",
"v+	c #006A97",
"w+	c #006C94",
"x+	c #00558A",
"y+	c #006CB0",
"z+	c #007AC7",
"A+	c #0075BF",
"B+	c #005199",
"C+	c #0064A2",
"D+	c #007AC2",
"E+	c #0079C6",
"F+	c #0069AF",
"G+	c #004980",
"H+	c #0080B2",
"I+	c #006795",
"J+	c #0072AE",
"K+	c #0076C4",
"L+	c #0070B9",
"M+	c #00568C",
"N+	c #004F7B",
"O+	c #004E85",
"P+	c #0061A8",
"Q+	c #006DBD",
"R+	c #0064A8",
"S+	c #004E7E",
"T+	c #0077C7",
"U+	c #0067A6",
"V+	c #00486F",
"W+	c #0067AA",
"X+	c #0077C2",
"Y+	c #0071BA",
"Z+	c #005B97",
"`+	c #005487",
" @	c #005996",
".@	c #006CB8",
"+@	c #005992",
"@@	c #0070B6",
"#@	c #0073BE",
"$@	c #0074C2",
"%@	c #0068AB",
"&@	c #004D7A",
"*@	c #0069A6",
"=@	c #006CA9",
"-@	c #0070B7",
";@	c #006EB5",
">@	c #0064A6",
",@	c #00578D",
"'@	c #0063AC",
")@	c #0072C6",
"!@	c #0061A0",
"~@	c #006199",
"{@	c #006DAB",
"]@	c #006CAC",
"^@	c #005C96",
"/@	c #005FA3",
"(@	c #0067B4",
"_@	c #005DA1",
":@	c #005999",
"<@	c #005FA2",
"[@	c #00548A",
"}@	c #004E83",
"|@	c #0066A9",
"1@	c #006FB9",
"2@	c #0070B8",
"3@	c #006CAE",
"4@	c #0067A2",
"5@	c #006EAF",
"6@	c #0076C0",
"7@	c #0076C1",
"8@	c #0064A4",
"9@	c #0065A4",
"0@	c #00599C",
"a@	c #00599D",
"b@	c #004D83",
"c@	c #005593",
"d@	c #005187",
"e@	c #005792",
"f@	c #0072C0",
"g@	c #0066A0",
"h@	c #0075C2",
"i@	c #006CB2",
"j@	c #00568F",
"k@	c #003F6E",
"l@	c #003355",
"m@	c #00599B",
"n@	c #004C84",
"o@	c #005795",
"p@	c #0064AA",
"q@	c #006FBB",
"r@	c #0073C0",
"s@	c #006EB2",
"t@	c #006CA8",
"u@	c #005C97",
"v@	c #0064A3",
"w@	c #005B9E",
"x@	c #004E86",
"y@	c #005B99",
"z@	c #006AB3",
"A@	c #0073C1",
"B@	c #0072B6",
"C@	c #0075B9",
"D@	c #0064AB",
"E@	c #005893",
"F@	c #006AAB",
"G@	c #005791",
"H@	c #0065AA",
"I@	c #0069B1",
"J@	c #0071B8",
"K@	c #0063A5",
"L@	c #0065A8",
"M@	c #0061A2",
"N@	c #00619D",
"O@	c #007DC5",
"P@	c #005B96",
"Q@	c #0066A6",
"R@	c #0069AC",
"S@	c #0076BD",
"T@	c #006EAE",
"U@	c #0068A5",
"V@	c #00629B",
"W@	c #006BAD",
"X@	c #006BB3",
"Y@	c #0066AA",
"Z@	c #0075BE",
"`@	c #006CAB",
" #	c #0071AF",
".#	c #0072BD",
"+#	c #006CB5",
"@#	c #0063A4",
"##	c #00609E",
"$#	c #0066A5",
"%#	c #006AA3",
"&#	c #005E98",
"*#	c #006EB4",
"=#	c #0076BC",
"-#	c #0071AE",
";#	c #006EAC",
">#	c #0070B0",
",#	c #0076C2",
"'#	c #005C91",
")#	c #005385",
"!#	c #0074BF",
"~#	c #0070AF",
"{#	c #00659C",
"]#	c #006BA5",
"^#	c #006FAC",
"/#	c #0074BE",
"(#	c #0068A9",
"_#	c #00639F",
":#	c #006CB3",
"<#	c #0075BC",
"[#	c #006CA6",
"}#	c #0068A2",
"|#	c #006BAA",
"1#	c #0069AA",
"2#	c #006BA8",
"3#	c #006DAD",
"4#	c #0075BB",
"5#	c #0073BB",
"6#	c #006FB2",
"7#	c #006FAF",
"8#	c #006BA6",
"9#	c #0073B6",
"0#	c #006AA6",
"a#	c #0071B1",
"b#	c #0074BA",
"c#	c #0075BD",
"d#	c #0068AE",
"e#	c #006AAD",
"f#	c #0077C0",
"g#	c #0075B7",
"h#	c #0076BB",
"i#	c #0076BE",
". + @ # # $ % % & * = - ; > , ' ) ! ~ { ] ^ / ( _ : < [ } | 1 2 ",
"+ < * 3 * @ 4 4 : } 5 6 7 8 9 0 a , b c d e f + g + h 3 [ i j 1 ",
"# * k k h @ l j m n ^ 7 o p q r s t u v w x y z A # B C D 3 E | ",
"} 3 k D k } F G H I J K L M N O P Q R S k h T F U } k V V D [ } ",
"} [ 3 k W X U F # Y Z `  ...+.@.#.$.%.&.*.=.-.;.>.8 ^ ,.V '.h * ",
").# # } !.~.~.* {.].^./.                  (._.:.3 8 5 <.k [.}.|.",
"g g A >.1.~.* 2.(.3.                          4.2.3 8 5.} + : . ",
"4 g | U U * 2.6.7.                              8.2.h >.G l % 9.",
"0.a.b.;.p c.d.                                    e.f.g.h.A i.j.",
"W 8 !.B k.4.l.              m.n.o.p.                q.r.E i / s.",
"t.u.v.w.x.y.            z.%.S A.B.C.D.E.            F.G.H.I.J.K.",
"L.M.N.O.P.o.          Q.R.9 x S.T.U., V.W.            6.X.Y.Z.6 ",
"`. +.+++@+          #+$+%+&+*+=+-+;+>+,+'+)+          !+~+{+]+^+",
"b /+(+_+:+          <+[+}+|+A.1+2+F ;.3+4+5+          6+7+X.8+9+",
", A 0+Q a+        b+c+d+e+f+g+h+i+j+k+l+l+m+y.        n+o+p+q+r+",
"s+t+u+v+w+        x+y+z+A+++B+      C+D+E+F+G+        H+I+J+g.y+",
"K+L+Y M+N+        O+P+Q+R+S+        (+T+=+U+V+        @ W+X+F ) ",
"Y+8 B Z+`+         @O.v..@+@        @@#@$@%@&@        *@W+!.>.=@",
"h -@;@>@,@          '@)@v.!@        ~+D K.Z+~@        *.~+h X {@",
"]@[.!.3 ^@          /@{ (@_@        :@L <@[@          }@|@1@2@3@",
"4@5@6@7@8@9@          0@a@b@        0@c@d@            e@'.f@5.3@",
"g@, 6@h@i@j@            k@l@        m@n@Z+          o@p@q@r@x s@",
"t@}.1.!.[ u@v@                      w@x@            y@z@A@#@1.B@",
"@ g.C@n [ W+m.                      D@E@F@        G@H@I@$@x J@# ",
"F i # s@[.7.K@j@                    L@M@N@O@    P@Q@R@7.B } i E ",
"S@>.< T@3@y+7.L@G@v                 R@i@Y U@V@U@y+h y+W@3@}.@ ).",
"S@>.< 3@W@y+B X@Y@Z+e.              C+1.Z@`@ ## 1.~.h y+I < @ + ",
"1.X * I 3@y+[.3 W .#+#@#u@##Q@$#%#&#*#=#i -#;#>#1.U.5.} i F #  #",
"} } } * s@I I h I..#=+,#h 2+'#)#@#A.!#f ~#{#]#>#i >.X !.!#U.# ^#",
"I h [ 5.} * [.I >.n /#7@U.(+(#_#:##@K+<#+ [#}#>## * h 5.!#!#* |#",
"1#y+[ !.x X s@3@2#3#B@~.4#5## 6#B !#x -+7#8#E 9#i [.W@B e x s@S ",
"(#W@[ x !#~.* {@U+0#2#|#a#b#c#&+d#e#f#J@/ g#h#i#~.3@2.R@W 8 i@S "};
