/* XPM */
static char *exit_icon[] = {
/* columns rows colors chars-per-pixel */
"32 32 180 2 ",
"   c #BF1B02",
".  c #BF200E",
"X  c #C60000",
"o  c #CD0000",
"O  c #CA0A00",
"+  c #D20000",
"@  c #DC0100",
"#  c #C01D0A",
"$  c #DD1100",
"%  c #D01A02",
"&  c #D71F15",
"*  c #E40100",
"=  c #EE0000",
"-  c #EE0900",
";  c #F20100",
":  c #FF0100",
">  c #F30B00",
",  c #FF0C00",
"<  c #E41400",
"1  c #EC1500",
"2  c #E41905",
"3  c #EE1C04",
"4  c #EB1D0A",
"5  c #F51200",
"6  c #FD1200",
"7  c #F31A01",
"8  c #F21E0C",
"9  c #EB1F10",
"0  c #C12315",
"q  c #C4261B",
"w  c #EF2003",
"e  c #EF200E",
"r  c #F1220D",
"t  c #E72310",
"y  c #EE2214",
"u  c #ED2719",
"i  c #F42616",
"p  c #FA2516",
"a  c #F42917",
"s  c #F42718",
"d  c #F42B1C",
"f  c #FA2B1C",
"g  c #D5362D",
"h  c #F72E20",
"j  c #F73022",
"k  c #F93224",
"l  c #D7490A",
"z  c #D74D16",
"x  c #D84D15",
"c  c #D94F1B",
"v  c #D7521E",
"b  c #C34D3A",
"n  c #DE5739",
"m  c #DF583E",
"M  c #FF542B",
"N  c #FD4135",
"B  c #E25031",
"V  c #ED5436",
"C  c #E15539",
"Z  c #FF5A34",
"A  c #F65638",
"S  c #F55A3E",
"D  c #FD5D3A",
"F  c #DC6238",
"G  c #FF603E",
"H  c #BD4A43",
"J  c #BC5F56",
"K  c #BC6256",
"L  c #BE635B",
"P  c #BB6761",
"I  c #BF6F6A",
"U  c #B37069",
"Y  c #C24D46",
"T  c #DD5A44",
"R  c #CF5A53",
"E  c #D45E56",
"W  c #F65E42",
"Q  c #DE6C45",
"!  c #C26157",
"~  c #CE6658",
"^  c #C3685D",
"/  c #C9695D",
"(  c #D36453",
")  c #D06859",
"_  c #E76049",
"`  c #FF6443",
"'  c #FF6947",
"]  c #F2644B",
"[  c #FF6749",
"{  c #FF6A4C",
"}  c #E1724D",
"|  c #EE6A54",
" . c #ED6C5B",
".. c #F06851",
"X. c #FF6E53",
"o. c #F8635A",
"O. c #FF7154",
"+. c #FE725B",
"@. c #D46E67",
"#. c #C0716C",
"$. c #E67F6C",
"%. c #FE7462",
"&. c #FF7A65",
"*. c #FF7B6A",
"=. c #FE7C74",
"-. c #CE8275",
";. c #CD867B",
":. c #CF897D",
">. c #D2877C",
",. c #E28263",
"<. c #E7826F",
"1. c #FF826F",
"2. c #E18C7F",
"3. c #FF8470",
"4. c #C38A83",
"5. c #CA8A82",
"6. c #FF8C84",
"7. c #FF9680",
"8. c #FF928A",
"9. c #FF9F8D",
"0. c #EBAA95",
"q. c #FEA69B",
"w. c #C6AFAF",
"e. c #C6B3B3",
"r. c #D0B5B5",
"t. c #FDA6A0",
"y. c #FAAAA3",
"u. c #EEBBAC",
"i. c #FFB4A6",
"p. c #FFB3AF",
"a. c #FEB6B2",
"s. c #FFBFB3",
"d. c #DBC0BD",
"f. c #EFC1B1",
"g. c #F0C3B6",
"h. c #F0C6B9",
"j. c #FFC4BC",
"k. c #F2CABE",
"l. c #D2C5C6",
"z. c #DAC6C4",
"x. c #D0CDCF",
"c. c #DDCDCB",
"v. c #DFD1CF",
"b. c #D3D3D5",
"n. c #DBD6D7",
"m. c #DAD6D8",
"M. c #D7DADE",
"N. c #DCD8DB",
"B. c #F2CCC0",
"V. c #FFC8C1",
"C. c #FFCFCC",
"Z. c #FFD1C7",
"A. c #F5D7CC",
"S. c #E3DEDF",
"D. c #F6DDD5",
"F. c #FFDDD7",
"G. c #FFDEDD",
"H. c #D6DDE1",
"J. c #DADEE1",
"K. c #E3DFE1",
"L. c #D6E1E6",
"P. c #DDE2E5",
"I. c #DDE6E9",
"U. c #E1E3E5",
"Y. c #E3E6E9",
"T. c #E4EAED",
"R. c #EEECEF",
"E. c #FFE6E3",
"W. c #FBE9E5",
"Q. c #FFEEEC",
"!. c #FFF2EF",
"~. c #EFEEF1",
"^. c #F0EFF2",
"/. c #EDF1F3",
"(. c #F2F2F4",
"). c #FEF6F4",
"_. c #FFF8F7",
"`. c #F4F6F8",
"'. c #FFFEFD",
"]. c None",
/* pixels */
"].].].].].].].].].].].].].].].].].].].].].].].].].].].].].].].].",
"].].].].].].].].].].].].].].].].].].].].].].].].].].].].].].].].",
"].].].].].].'.'._.Q.Q.Q.Q.!.Q.!.Q.!.Q.Q.Q.Q.).'.'.'.].].].].].].",
"].].].].'.F.3.+.Z M M M M M M M M M M M M M Z ' 3.i.'.].].].].].",
"].].]._.9.` D G ` D ' ` ` ` ` ' ' ` ` ` ` D ` G G G +.!.].].].].",
"].]._.j.' ' ' ' A <.V ` [ ' ' ' ` ' [ [ A $.V ` ' ' G 3.'.].].].",
"].].).&.' { { S :.`.r.B [ { ' { { { { S -.`.c.B ' { { ' F.].].].",
"].].).[ O.X.W ;.`.(.'.z.C { X.X.O.X.W ;.`.(.).c.n { O.[ j.A.].].",
"].].Q.' +.{ ;.(.(.(.(.`.z.m O.+.O.] ;.`.(.(.(.`.v._ +.X.s.h.].].",
"].].Q.X.+...K.`.(.(.(.(.`.c.T +.] :.`.(.(.(.(.(._.5.+.O.j.h.].].",
"].].Q.X.&.+.( K.(.^.(.^.^.(.v.b 4.(.(.(.(.^.^.(.:...&.+.j.h.].].",
"].].Q.+.&.*.+.( S.(.^.^.^.^.^.n.(.(.^.^.^.^./.;.| &.&.%.j.h.].].",
"].].Q.+.*.*.*.%.) S.^.R.^.^.R.^.R.^.R.^.^./.5. .*.*.*.%.V.h.].].",
"].].Q.+.*.*.*.*.%.( K.R.R.R.R.R.R.R.R.R./.4. .*.*.*.*.%.j.h.].].",
"].].Q.&.=.1.1.1.3.*.^ N.I.U.P.U.P.P.I.Y.4. .=.1.1.1.1.*.V.h.].].",
"].].E.: : : : : : : * U H.M.M.M.M.H.H.e.o : : : : : : : q.k.].].",
"].].E.: 6 : : , , ; ^ L.M.M.M.M.M.M.H.J.w.@ : , : , , : q.h.].].",
"].].E.: 6 , , , = ! L.J.H.H.J.H.H.M.H.J.P.w.@ : 6 , , : q.k.].].",
"].].E.: 6 6 , * L I.J.J.J.J.J.P.J.J.J.J.M.P.w.+ > 6 6 : q.h.].].",
"].].E.; 7 5 * K I.J.J.J.K.J.I.U x.P.K.J.U.J.Y.e.+ > 7 ; q.k.].].",
"].].E.; 3 * J I.P.P.P.U.P.I.J +   b.Y.P.P.P.U.P.e.X 1 ; y.h.].].",
"].].E.= 1 R T.P.U.Y.U.U.T.P @ 1 < . b.Y.Y.U.Y.Y.T.r.* = y.h.].].",
"].].W.= 3 % l.T.Y.Y.Y.T.P @ 3 3 3 < . n.Y.Y.Y.Y.Y.Y < - y.k.].].",
"].]._.8 r 4 X l.T.T.T.I @ r r r r r 2 0 n.Y.Y.Y.H < r - a.g.].].",
"].].W.o.8 d y O l./.I $ i i a s s s a 9 q N.T.H 2 u i a W.].].].",
"].].0.C.k d j d & @.2 d j h h h h h h k u g E t j f f =.W.].].].",
"].].].D.a.N p f f p f f f f f f f f f f f f p f p k =._.} ].].].",
"].].].v f.).p.8.6.6.6.6.6.6.6.6.6.6.6.6.6.6.6.8.t.G.W.Q ].].].].",
"].].].].c F 0.B.k.k.B.B.B.k.B.k.B.B.k.B.k.B.k.B.u.,.l ].].].].].",
"].].].].].].].x x x x x x x x x x x x x x x x x c ].].].].].].].",
"].].].].].].].].].].].].].].].].].].].].].].].].].].].].].].].].",
"].].].].].].].].].].].].].].].].].].].].].].].].].].].].].].].]."
};
