/* XPM */
static char * run_xpm[] = {
"20 20 3 1",
" 	c None",
".	c #54F1CA",
"+	c #F13283",
"....................",
".............+++....",
"............+++++...",
".............+++....",
".....+++++++.++.....",
"....+++++++++.......",
"....+....+++++......",
"........+++++++.....",
"........+++++++.....",
".......++++++.+++++.",
".......+++++..+++++.",
"......++++++...++...",
".....+++++++........",
"...+++++..+++.......",
".+++++++...+++......",
".++++......+++......",
"...........+++......",
"...........++.......",
"...........+++......",
"...................."};
