/* XPM */
static char *xpm_SAVE[] = {
/* columns rows colors chars-per-pixel */
"34 34 123 2",
"   c #020002",
".  c #0C0002",
"X  c #0C0009",
"o  c #100002",
"O  c #140012",
"+  c #3E3E3E",
"@  c #434343",
"#  c #4B4A49",
"$  c #203E94",
"%  c #1E4299",
"&  c #21429B",
"*  c #1B45A2",
"=  c #1E48A4",
"-  c #1653B0",
";  c #1B56B3",
":  c #1C5BB7",
">  c #254FA8",
",  c #2750A8",
"<  c #2951A9",
"1  c #3256A9",
"2  c #3759AA",
"3  c #3C5DAC",
"4  c #405497",
"5  c #45599D",
"6  c #495EA1",
"7  c #4D61A5",
"8  c #5266AA",
"9  c #5469AC",
"0  c #1B60C1",
"q  c #1C67C9",
"w  c #1D69C9",
"e  c #0E68D4",
"r  c #1667D0",
"t  c #116AD4",
"y  c #1B72DD",
"u  c #246CCB",
"i  c #286ECA",
"p  c #2971CE",
"a  c #3274CB",
"s  c #3B7BCF",
"d  c #2C73D1",
"f  c #277DDF",
"g  c #297FE0",
"h  c #417CD3",
"j  c #1C82ED",
"k  c #2285EC",
"l  c #2B89EB",
"z  c #3489E7",
"x  c #3B8CE6",
"c  c #338EED",
"v  c #3D8FE9",
"b  c #3691ED",
"n  c #3B93EE",
"m  c #3492F1",
"M  c #3C96F2",
"N  c #3E98F3",
"B  c #5084CE",
"V  c #5D8CD2",
"C  c #428CE3",
"Z  c #4294EC",
"A  c #4895E8",
"S  c #4799EE",
"D  c #4E9CED",
"F  c #549CE9",
"G  c #4097F0",
"H  c #4299F1",
"J  c #4C9EF1",
"K  c #419EFB",
"L  c #54A0EE",
"P  c #5BA3EE",
"I  c #4FA1F5",
"U  c #55A3F3",
"Y  c #5CA6F1",
"T  c #5AA8F5",
"R  c #69A7EB",
"E  c #78AFED",
"W  c #65ABF2",
"Q  c #6AACF1",
"!  c #6DB2F7",
"~  c #75B3F2",
"^  c #7AB5F2",
"/  c #7DBBF8",
"(  c #9D9693",
")  c #A29B99",
"_  c #ADA6A5",
"`  c #B7AEA4",
"'  c #BCB3A7",
"]  c #BFB7AC",
"[  c #B4B3B2",
"{  c #C7BEB4",
"}  c #86B6EE",
"|  c #85BBF3",
" . c #93BDF0",
".. c #8FC1F4",
"X. c #8DC3FA",
"o. c #9BC6F7",
"O. c #99C8F7",
"+. c #9DCDFC",
"@. c #A6D5FF",
"#. c #BDDAF9",
"$. c #D3CBC0",
"%. c #D8D1CF",
"&. c #DEDEDE",
"*. c #E4DCD1",
"=. c #E4DDDB",
"-. c #C3DEF9",
";. c #CAE2F9",
":. c #D2E6FA",
">. c #DAEAFB",
",. c #E4E4E4",
"<. c #EAE6E2",
"1. c #EBE8E4",
"2. c #EBEBEB",
"3. c #F4ECE1",
"4. c #F0EBE9",
"5. c #FFF7E6",
"6. c #F7F2EB",
"7. c #FEF4E8",
"8. c #ECF8FF",
"9. c #F5F5F4",
"0. c #FBF6F3",
"q. c #FDF9F5",
"w. c #FFFEFE",
/* pixels */
"                                                                    ",
"                                                                    ",
"        : s B V V V V V V V V V V V V V V V V V V V V B s ; . X     ",
"      0 @.+.8.6.6.6.6.6.6.6.6.6.6.6.6.6.6.6.6.6.6.6.6.8.+.@.; . X   ",
"    : @.o...>.q.9.9.9.9.9.9.9.9.9.9.9.9.9.9.9.9.9.9.q.>...O.o.& o   ",
"    s +...| >.9.9.9.9.9.9.9.9.9.9.9.9.9.9.9.9.9.9.9.9.>.| .. .3 . X ",
"    a X.| ^ :.<.,.,.,.,.,.,.,.,.,.,.,.,.,.,.,.,.,.,.<.:.^ | } 2 .   ",
"    a / ~ Q :.w.w.w.w.w.w.w.w.w.w.w.w.w.w.w.w.w.w.w.w.:.Q ~ E 1 .   ",
"    p ! W P ;.1.,.,.,.,.,.,.,.,.,.,.,.,.,.,.,.,.,.,.1.;.P W R 1 .   ",
"    i W P D -.4.2.2.2.2.2.2.2.2.2.2.2.2.2.2.2.2.2.2.4.-.D Y P < .   ",
"    u T L S -.w.w.w.w.w.w.w.w.w.w.w.w.w.w.w.w.w.w.w.w.-.S U F < .   ",
"    u U D Z -.<.,.,.,.,.,.,.,.,.,.,.,.,.,.,.,.,.,.,.<.-.Z J F < .   ",
"    u I D n -.q.9.9.9.9.9.9.9.9.9.9.9.9.9.9.9.9.9.9.q.-.n J D < o   ",
"    u J S b #.0.9.9.9.9.9.9.9.9.9.9.9.9.9.9.9.9.9.9.0.#.b S A , o   ",
"    u H Z c #.<.,.,.,.,.,.,.,.,.,.,.,.,.,.,.,.,.,.,.<.#.c Z Z , o   ",
"    w N n l #.w.w.w.w.w.w.w.w.w.w.w.w.w.w.w.w.w.w.w.w.#.l n v > o   ",
"    q M c k ;.5.7.7.7.7.7.7.7.7.7.7.7.7.7.7.7.7.7.7.5.;.k b x > o   ",
"    q m c c k j j j j j j j j j j k k k k j j j j j j k c c z > o   ",
"    q m c c c c c c c c c b b b c b b b b b c c c c c c c c z > o   ",
"    q m c c c c c c c c c b b b c b b b b b c c c c c c c c z > o   ",
"    q m c c c c c c c c c b b b c b b b b b c c c c c c c c z > o   ",
"    q m c c b b b b m m m m m m m b b b b b b c b c c c c b z > o   ",
"    w M b b b b n g u i i p p p d d d d d d d d f n b b b b x > o   ",
"    w M b b n n n y ` ' ] { $.*.3.q.w.w.w.w.w.w.e n n b b b x > o   ",
"    w M n b n n M y [ # + + @ &.,.2.9.q.w.w.w.w.t M n n b n x > o   ",
"    w M n n n n G y [ # @ @ # &.,.2.9.q.w.w.w.w.t N n n n n x > o   ",
"    w N n n n n G y [ # + + @ &.,.2.9.q.w.w.w.w.t G n n n n v > o   ",
"    w N n n n n G y [ # + + @ &.,.2.9.q.w.w.w.w.t G n n n n v , o   ",
"    w H n n n Z H y [ # @ @ @ &.,.2.9.q.w.w.w.w.t G n n n n x > o   ",
"    - K n n n Z H y [ # @ + @ &.,.2.9.w.w.w.w.w.t H Z n n x h $ o X ",
"    . ; Z Z Z Z Z y _ ( ( ) _ %.=.4.0.q.q.w.w.q.r Z Z Z C h & X O   ",
"    X . % < , , < = 4 5 5 5 6 6 7 8 8 8 9 9 9 9 * < , , , $ X O X   ",
"      X o o o o o o . . . . . . . . . . . . . . o o o o o o O X     ",
"          X X X X X X X X X X X X X X X X X X X X X X X X X         "
};
