/* XPM */
static char * script_blu_xpm[] = {
"50 50 17 1",
" 	c None",
".	c #FDFEFE",
"+	c #6CCECE",
"@	c #000000",
"#	c #EEF9F9",
"$	c #584CF8",
"%	c #143D3D",
"&	c #3FBDBD",
"*	c #1C5454",
"=	c #F3FBFB",
"-	c #0A1F1F",
";	c #206060",
">	c #091B1B",
",	c #184B4B",
"'	c #040C0C",
")	c #ABE3E3",
"!	c #CDEEEE",
"                .......................           ",
"               .........................          ",
"              ..+@@@@@@@@@@.@@@@@@@@@@...         ",
"            ....@@@@@@@@@@@@@@@@@@@@@@@....#      ",
"          ......@@.@@..@@.@@@.@@..@@.@@......     ",
"          ..@@@@@@@@@@@@@@@@@@@@@@@@@@@@@@@..     ",
"          ..@@@@@@@@@@@@@@@@@@@@@@@@@@@@@@@..     ",
"          ..@@$$@%$@@$$@@$$@@$@@$$@@$$$$$@@..     ",
"          .&@$$$@@$*@$$@@$$@@$$@$$@@$$$$$@@..     ",
"         =.@@$$$@@$$@$$$@$$@@$$@$$$@$$$$$@@..     ",
"         ..@@$$$$$$$$$$$$$$$$$$$$$$$$$$$$@@..     ",
"         ..@@$$$$$$$$$$$$$$$$$$$$$$$$$$$$@@..     ",
"         ..@@$$$@@$$@@$$@@@$$@$@@@$@@@@-$@@..     ",
"         ..@@$$@$@$@$$$$@ @$$@$@ @$$$@$$$@@..     ",
"         ..@@$$@$$$@$$$;$@@$$@$@@@$$$@$$$@@..     ",
"         ..@@$$$@$$@$$$@$@@$@$$@$$$$$>$$$@@..     ",
"         ..@$$,$@$$@$@$@$$@$@$@$$$$$@$$$@@@..     ",
"         .@@$$@@@$$@@@$@$$@$@$@$$$$$@$$$@@@..     ",
"        ..@@$$$$$$$$$$$$$$$$$$$$$$$$$$$$@@@..     ",
"        ..@@$$$$$$$$$$$$$$$$$$$$$$$$$$$$@@@..     ",
"        ..@@$$$$$$$$$$$$$$$$$$$$$$$$$$$$@@@..     ",
"        ..@@$$$$$$$$$$$$$$$$$$$$$$$$$$$$@@@..     ",
"        ..@@$$$$$$$$$$$$$$$$$$$$$$$$$$$$@@@..     ",
"        ..@@$$$$$$$$$$$$$$$$$$$$$$$$$$$$@@@..     ",
"        ..@$$$$$$$$$$$$$$$$$$$$$$$$$$$$@@@@..     ",
"       #.@@$$$$$$$$$$$$$$$$$$$$$$$$$$$$@@@@..     ",
"       ..@@$$$$$$$$$$$$$$$$$$$$$$$$$$$$@@@@..     ",
"       ..@@$$$$$$$$$$$$$$$$$$$$$$$$$$$$@@@@..     ",
"       ..@@$$$$$$$$$$$$$$$$$$$$$$$$$$$$@@@@..     ",
"       ..@@$$$$$$$$$$$$$$$$$$$$$$$$$$$$@@@@..     ",
"       ..@@$$$$$$$$$$$$$$$$$$$$$$$$$$$$@@@@..     ",
"       ..@$$$$$$$$$$$$$$$$$$$$$$$$$$$$'@)@@..     ",
"       .@@$$$$$$$$$$$$$$$$$$$$$$$$$$$$@@)@@..     ",
"      ..@@$$$$$$$$$$$$$$$$$$$$$$$$$$$$@@)@@..     ",
"      ..@@$$$$$$$$$$$$$$$$$$$$$$$$$$$$@@)@@..     ",
"      ..@@$$$$$$$$$$$$$$$$$$$$$$$$$$$$@@)@@..     ",
"      ..@@$$$$$$$$$$$$$$$$$$$$$$$$$$$$@@@@@..     ",
"      ..@@$$$$$$$$$$$$$$$$$$$$$$$$$$$>@)@@@..     ",
"      .!@$$$$$$$$$$$$$$$$$$$$$$$$$$$$@@)@@@..     ",
"     ..@@$$$$$$$$$$$$$$$$$$$$$$$$$$$$@@)@@@..     ",
"     ..@@$$$$$$$$$$$$$$$$$$$$$$$$$$$$@@)@@@..     ",
"     ..@@$$$$$$$$$$$$$$$$$$$$$$$$$$$$@@)@@@..     ",
"     ..@@$$$$$$$$$$$$$$$$$$$$$$$$$$$$@@)@@@..     ",
"     ..@@@@@@@@@@@@@@@@@@@@@@@@@@@@@@@))@@@..     ",
"     ..@@@@@@@@@@@@@@@@@@@@@@@@@@@@@@@))@@@..     ",
"      ..@@@@@@@@@@@@@@@@@@@@@@@@@@@@@@@@)@@..     ",
"      ..@@@@@@@@@@@@@@@@@@@@@@@@@@@@@@@@@@@..     ",
"       .....@@@@@@@@@@@@@@@@@@@@@@@@@@@@@@@..     ",
"          ...................................     ",
"           .................................      "};
