/* XPM */
static const char *sd[] = {
/* columns rows colors chars-per-pixel */
"35 35 2 1",
"  c #333333",
". c None",
/* pixels */
"...................................",
"...................................",
"...................................",
"...................................",
"..........                .........",
".........                  ........",
"........                    .......",
"........   ..  ..  ... ...  .......",
"........   ..  ..  ... ...  .......",
"........   ..  ..  ... ...  .......",
"........   ..  ..  ... ...  .......",
"........   ..  ..  ..  ...  .......",
"........                    .......",
"........                    .......",
"........                    .......",
"........                    .......",
".......                     .......",
"......                      .......",
"......                      .......",
".....                       .......",
".....                       .......",
".....                       .......",
".....                       .......",
".....                       .......",
".....                       .......",
".....                       .......",
".....                       .......",
".....                       .......",
"......                      .......",
"......                     ........",
"........                  .........",
"...................................",
"...................................",
"...................................",
"..................................."
};
