/* XPM */
static char * upload_wave[] = {
"32 32 416 2",
"  	c None",
". 	c #0068A7",
"+ 	c #006CB2",
"@ 	c #0070BB",
"# 	c #006FB8",
"$ 	c #0069AC",
"% 	c #0066A8",
"& 	c #006CAE",
"* 	c #0074BB",
"= 	c #0076BE",
"- 	c #0076BB",
"; 	c #0075B7",
"> 	c #0074B8",
", 	c #0071B8",
"' 	c #0077C0",
") 	c #006AAD",
"! 	c #0068AE",
"~ 	c #0077BE",
"{ 	c #0075BD",
"] 	c #0074BA",
"^ 	c #0071B1",
"/ 	c #006BAA",
"( 	c #006BA8",
"_ 	c #006AA6",
": 	c #0067A6",
"< 	c #006DAB",
"[ 	c #0070B4",
"} 	c #0074BF",
"| 	c #0073BC",
"1 	c #006FB6",
"2 	c #006BAD",
"3 	c #0068A9",
"4 	c #006EB2",
"5 	c #0072BC",
"6 	c #006DB3",
"7 	c #006DB2",
"8 	c #0073B7",
"9 	c #0073B6",
"0 	c #0073B5",
"a 	c #006BA6",
"b 	c #006FAF",
"c 	c #0078C1",
"d 	c #006FB2",
"e 	c #0071B4",
"f 	c #0073BB",
"g 	c #0075BB",
"h 	c #0072B6",
"i 	c #006DAD",
"j 	c #0072B9",
"k 	c #0072BB",
"l 	c #006CB0",
"m 	c #0069AA",
"n 	c #0071B9",
"o 	c #006EB3",
"p 	c #0070B0",
"q 	c #0068A2",
"r 	c #006CA6",
"s 	c #0072B1",
"t 	c #0075BC",
"u 	c #0076C4",
"v 	c #0073BE",
"w 	c #006CB3",
"x 	c #00639F",
"y 	c #006FB4",
"z 	c #0074BD",
"A 	c #0076C1",
"B 	c #0074BE",
"C 	c #0073BA",
"D 	c #0074B9",
"E 	c #006EB0",
"F 	c #0071B6",
"G 	c #006FAC",
"H 	c #006BA5",
"I 	c #00659C",
"J 	c #0070AF",
"K 	c #0073B9",
"L 	c #006BB0",
"M 	c #0063A4",
"N 	c #005385",
"O 	c #005C91",
"P 	c #0064A1",
"Q 	c #0076C2",
"R 	c #0075C3",
"S 	c #0072BD",
"T 	c #0072BA",
"U 	c #0071AF",
"V 	c #0074B7",
"W 	c #0074BC",
"X 	c #006EAC",
"Y 	c #0071AE",
"Z 	c #0076BC",
"` 	c #006EB4",
" .	c #005E98",
"..	c #006AA3",
"+.	c #0066A5",
"@.	c #0066A6",
"#.	c #00609E",
"$.	c #005C97",
"%.	c #006CB5",
"&.	c #006EB6",
"*.	c #0072B3",
"=.	c #0070B3",
"-.	c #006CAB",
";.	c #0075BE",
">.	c #0064A2",
",.	c #005892",
"'.	c #005B97",
").	c #0066AA",
"!.	c #006BB3",
"~.	c #0076BD",
"{.	c #0073B4",
"].	c #006FB0",
"^.	c #0068A5",
"/.	c #00629B",
"(.	c #006AAE",
"_.	c #006BB2",
":.	c #005791",
"<.	c #0065A8",
"[.	c #006AAF",
"}.	c #006EAE",
"|.	c #005B96",
"1.	c #007DC5",
"2.	c #00619D",
"3.	c #0061A2",
"4.	c #00568F",
"5.	c #0063A5",
"6.	c #0074C2",
"7.	c #0069B1",
"8.	c #0065AA",
"9.	c #006AAB",
"0.	c #005893",
"a.	c #0064AB",
"b.	c #00538A",
"c.	c #0067AA",
"d.	c #0075B9",
"e.	c #006FAE",
"f.	c #0073C1",
"g.	c #006AB3",
"h.	c #005B99",
"i.	c #004E86",
"j.	c #005B9E",
"k.	c #0064A3",
"l.	c #006CA8",
"m.	c #0073C0",
"n.	c #006FBB",
"o.	c #0064AA",
"p.	c #005795",
"q.	c #004C84",
"r.	c #00599B",
"s.	c #003355",
"t.	c #003F6E",
"u.	c #0075C2",
"v.	c #0076C0",
"w.	c #0071B2",
"x.	c #0066A0",
"y.	c #0072C0",
"z.	c #006AB2",
"A.	c #005792",
"B.	c #005187",
"C.	c #005593",
"D.	c #00599C",
"E.	c #004D83",
"F.	c #00599D",
"G.	c #0065A4",
"H.	c #0064A4",
"I.	c #006EAF",
"J.	c #0067A2",
"K.	c #0070B8",
"L.	c #006FB9",
"M.	c #0066A9",
"N.	c #004E83",
"O.	c #00548A",
"P.	c #005FA2",
"Q.	c #0061A7",
"R.	c #005999",
"S.	c #005DA1",
"T.	c #0067B4",
"U.	c #006BBE",
"V.	c #005FA3",
"W.	c #005C96",
"X.	c #006CAC",
"Y.	c #0066A7",
"Z.	c #00568D",
"`.	c #006199",
" +	c #0070BC",
".+	c #006BB5",
"++	c #0061A0",
"@+	c #006BB9",
"#+	c #0072C6",
"$+	c #0063AC",
"%+	c #00578D",
"&+	c #0064A6",
"*+	c #006EB5",
"=+	c #0070B7",
"-+	c #006CA9",
";+	c #0069A6",
">+	c #004D7A",
",+	c #0068AB",
"'+	c #0070B6",
")+	c #005992",
"!+	c #006CB8",
"~+	c #0066B0",
"{+	c #005996",
"]+	c #005487",
"^+	c #0071BA",
"/+	c #006DAA",
"(+	c #0077C2",
"_+	c #00486F",
":+	c #0077C7",
"<+	c #004E7E",
"[+	c #0064A8",
"}+	c #006DBD",
"|+	c #0061A8",
"1+	c #004E85",
"2+	c #004F7B",
"3+	c #00568C",
"4+	c #0070B9",
"5+	c #0072AE",
"6+	c #006795",
"7+	c #0080B2",
"8+	c #004980",
"9+	c #0069AF",
"0+	c #0079C6",
"a+	c #007AC2",
"b+	c #005199",
"c+	c #0061A6",
"d+	c #0075BF",
"e+	c #007AC7",
"f+	c #00558A",
"g+	c #006C94",
"h+	c #006A97",
"i+	c #0075AB",
"j+	c #0074AD",
"k+	c #0078B4",
"l+	c #006AB1",
"m+	c #006FB5",
"n+	c #006DAC",
"o+	c #00689D",
"p+	c #0077A9",
"q+	c #004A7E",
"r+	c #00609C",
"s+	c #0079C1",
"t+	c #0071B3",
"u+	c #00578B",
"v+	c #004C78",
"w+	c #003D74",
"x+	c #005492",
"y+	c #0069AD",
"z+	c #0079C3",
"A+	c #007BC1",
"B+	c #0066A2",
"C+	c #005185",
"D+	c #006291",
"E+	c #006798",
"F+	c #0074AF",
"G+	c #0075B5",
"H+	c #0069B8",
"I+	c #006FBC",
"J+	c #0069AE",
"K+	c #0067A3",
"L+	c #006095",
"M+	c #005B90",
"N+	c #0076B8",
"O+	c #007ABF",
"P+	c #0072B7",
"Q+	c #005EA4",
"R+	c #007CC5",
"S+	c #0079C0",
"T+	c #0078B7",
"U+	c #005C8B",
"V+	c #005483",
"W+	c #00639C",
"X+	c #0071BD",
"Y+	c #006EB8",
"Z+	c #006ABE",
"`+	c #006DBE",
" @	c #006BB6",
".@	c #005587",
"+@	c #004E73",
"@@	c #006395",
"#@	c #0078B8",
"$@	c #0080C7",
"%@	c #0078C2",
"&@	c #007BC8",
"*@	c #007AB9",
"=@	c #006D9F",
"-@	c #00597B",
";@	c #004C80",
">@	c #006AB9",
",@	c #006CBE",
"'@	c #006DC1",
")@	c #006BBD",
"!@	c #006FC0",
"~@	c #006FBD",
"{@	c #005890",
"]@	c #005179",
"^@	c #00689C",
"/@	c #007BCC",
"(@	c #007DCC",
"_@	c #0076B6",
":@	c #006FA2",
"<@	c #005977",
"[@	c #004D8A",
"}@	c #00518D",
"|@	c #006BBA",
"1@	c #0069BE",
"2@	c #006BC2",
"3@	c #0073BD",
"4@	c #006DB1",
"5@	c #00649F",
"6@	c #00558D",
"7@	c #004F77",
"8@	c #005C95",
"9@	c #0062A3",
"0@	c #0067B0",
"a@	c #005E91",
"b@	c #005276",
"c@	c #005B9F",
"d@	c #0068B2",
"e@	c #006EBD",
"f@	c #006CBC",
"g@	c #0074B6",
"h@	c #006BAB",
"i@	c #005993",
"j@	c #00518C",
"k@	c #00518B",
"l@	c #005A99",
"m@	c #00558E",
"n@	c #0068AA",
"o@	c #0075AF",
"p@	c #0074B1",
"q@	c #0079BD",
"r@	c #0069AB",
"s@	c #005389",
"t@	c #0068AC",
"u@	c #006FB3",
"v@	c #0078BC",
"w@	c #0073B2",
"x@	c #0074B5",
"y@	c #0075AD",
"z@	c #0076AE",
"A@	c #0075B4",
"B@	c #0075B8",
"C@	c #005891",
"D@	c #0075BA",
"E@	c #0075B6",
"F@	c #0075B2",
"G@	c #0076B0",
"H@	c #0073AD",
"I@	c #0072AF",
"J@	c #005DA0",
"K@	c #00558C",
"L@	c #0070B1",
"M@	c #006DB5",
"N@	c #006DB8",
"O@	c #006EBB",
"P@	c #0067A8",
"Q@	c #005A93",
"R@	c #005291",
"S@	c #004B7E",
"T@	c #00548C",
"U@	c #0067A5",
"V@	c #0068B4",
"W@	c #0069B6",
"X@	c #006DBA",
"Y@	c #006CAF",
"Z@	c #00619E",
"`@	c #005486",
" #	c #006E9D",
".#	c #00729F",
"+#	c #0071A0",
"@#	c #00669B",
"##	c #00568A",
"$#	c #004C7F",
"%#	c #004F8A",
"&#	c #005D9D",
"*#	c #006FB1",
"=#	c #00649C",
"-#	c #006B99",
";#	c #006C9A",
">#	c #00679B",
",#	c #00629C",
"'#	c #0067B2",
")#	c #0068B1",
"!#	c #0072B5",
"~#	c #0069B4",
"{#	c #007ABE",
"]#	c #0077BD",
"^#	c #006EB9",
"/#	c #006DAF",
"(#	c #0070AC",
"_#	c #0071A8",
":#	c #0073A9",
"<#	c #0074AE",
"[#	c #006AB6",
"}#	c #006BBB",
"|#	c #0078B9",
"1#	c #0076B5",
"2#	c #007AB3",
"3#	c #006DBC",
"4#	c #006CBB",
"5#	c #006FAA",
"6#	c #0077B2",
"7#	c #007CB2",
"8#	c #0074B0",
"9#	c #0076B4",
"0#	c #006CBD",
"a#	c #006BB7",
"b#	c #006BAE",
"c#	c #0076B1",
"d#	c #006FBA",
"e#	c #006EC2",
"f#	c #006BC0",
"g#	c #006CBA",
"h#	c #0076B2",
"i#	c #0074B2",
". + @ # $ % & * = - ; > , ' ) ! ~ { ] ^ / ( _ : < [ * } | 1 2 3 ",
". 4 | 5 6 2 7 8 9 0 a b c | } 6 d e f g * h i ( & 4 j | k 1 l m ",
"/ [ } } n o [ e p q r s t u v w x 3 y z A B C D E 7 [ F n 1 o E ",
"G e z } k j D 8 p H I J K } L M N O P o Q R S T o E E 4 [ F F F ",
"U e V 8 F n z W p X Y 8 Z `  ...+.@.#.$.M %.S # &.7 l & E [ j W ",
"s *.=.E l o * W e U -.;.W >.              ,.'.).!.6 l 2 & =.D ~.",
"{.*.].& 2 l o l ^./.^.(.+ $                 _.:.<.[.l & }.=.D ~.",
"0 8 F 6 [.$ @.|.    1.2.3.<.                    4.5.[.7 4 e 8 V ",
"e , | 6.7.8.:.        9.0.a.                      b.c.1 C d.e.*.",
"h W v f.g.h.            i.j.                      k.$.1 k W ].l.",
"4 | m.n.o.p.          '.q.r.        s.t.            4.+ u.v.w.x.",
"& n y.z.A.            B.C.D.        E.F.D.          G.H.A v.I.J.",
"& K.L.M.N.          O.P.Q.R.        S.T.U.V.          W.&.k 7 X.",
"< j o Y.Z.        `.'. +.+Y.        ++@+#+$+          %+&+*+=+o ",
"-+D k c.;+        >+,+6.v '+        )+!+@+~+{+        ]+'.6 @ ^+",
"/+V (+c.*.        _+: R :+y         <+[+}+|+1+        2+3+(.4+u ",
"l e.5+6+7+        8+9+0+a+>.      b+c+d+e+l f+        g+h+i+j+k+",
"l+m+n+o+p+        q+r+s+s+t+u+v+w+x+y+z+A+B+C+        D+E+F+G+w.",
"H+I+J+K+L+          M+N+O+P+V P Q+L R+S+T+U+          V+W+y X+Y+",
"Z+`+ @Y..@          +@@@#@$@%@c R &@~ *@=@-@          ;@c+>@,@'@",
")@!@~@J+{@            ]@^@w.z /@(@| _@:@<@          [@}@~+|@1@2@",
" +3@T 4@5@6@            7@8@9@0@L . a@b@            q+c@d@@+e@f@",
"g@> 8 0 h@i@                j@[@k@b.              l@m@n@6 k @ # ",
"o@p@G+q@e.r@,.                                    s@t@u@P+v@w@x@",
"y@z@A@B@D o % C@                              [.{@% [ D@D@E@F@G@",
"H@I@s F n @ &.% m@                          J@K@% [ * W D G+F@F@",
"L@].7 M@N@O@@ &.P@Q@K@                  R@S@T@U@[ * * k F e e {.",
"[ o z.V@W@X@@ D P+Y@Z@Z.`@a@ #.#+#@###$#%#&#(.e V D@j # M@&.1 F ",
"F 1 .+V@V@M@F D@V *#o M@. =#E+-#;#>#,#Q.'#)#E !#B@V F M@.+M@&.F ",
"E@0 &..+~#6 e G+{#]#| ^#_./#(#_#:#<#u@[#}#X@C |#1#A@*.o M@M@[ e ",
"2#1#8 1 &.o s F@s K 5 3#4#Y+w.5#6#_@@ }#)@O@F I@G@G@*.[ &.[ =.s ",
"7#2#E@F 1 =.I@8#9#> X@0#U.a#b#/+c#w.d#e#f#g#[ h#z@z@i#e e *.s H@"};
